<?xml version="1.0" encoding="UTF-8"?>
<svg id="uuid-fda91b76-f3a9-4742-b633-8d2b88af1958" data-name="Layer 1" xmlns="http://www.w3.org/2000/svg" viewBox="0 0 1080 1080">
  <defs>
    <style>
      .uuid-72bc5031-dca9-4e63-a919-dd261a4f4d09 {
        fill: #05602d;
      }

      .uuid-b5c4c71f-4f78-48c3-a6ac-ca870f53f726 {
        fill: #f8acd6;
      }

      .uuid-9004662c-5b2e-42dc-b2ad-b73dc735e9f5 {
        fill: #06602e;
      }
    </style>
  </defs>
  <path class="uuid-72bc5031-dca9-4e63-a919-dd261a4f4d09" d="M444.79,681.73c139.52,25.94,277.05,25.53,412.5-21.1,1.46-159.89-71.98-327.82-245.01-355.44l-74.35-5.43c-13.64.12-27.15.83-40.11,2.26-173.45,19.1-225.62,180.53-273.9,321.34q12.05,7.75,23.89,11.74c54.18,18.28,139.54,35.94,196.99,46.62Z"/>
  <path class="uuid-9004662c-5b2e-42dc-b2ad-b73dc735e9f5" d="M877.2,713.38c-.84-10.05-11.11-26.57-15.65-26.62-219.66,71.82-433.12,27.92-646.42-40.01-2.95-1.17-11.7,1.33-15.93,6.32-22.52,26.62-41.02,154.22-3.95,174.87,22.72,12.66,150.38,38.01,182.56,42.29,137.66,18.34,321.94,28.57,454.66-13.57,68.11-21.62,49.92-84.83,44.72-143.29Z"/>
  <path class="uuid-b5c4c71f-4f78-48c3-a6ac-ca870f53f726" d="M861.56,686.76c-.5-2.91-4.3-22.59-4.27-26.13-135.45,46.63-272.98,47.04-412.5,21.1-57.45-10.68-142.8-28.34-196.99-46.62q-11.84-3.99-23.89-11.74c-1.82,5.31-7.67,22.08-8.78,23.39,213.3,67.93,426.76,111.83,646.42,40.01Z"/>
  <path class="uuid-b5c4c71f-4f78-48c3-a6ac-ca870f53f726" d="M629.17,261.89c-3.05-75.9-155.7-45.94-91.98,37.81l.74.05,74.35,5.43c17.6-19.4,17.6-25.68,16.89-43.29Z"/>
</svg>