<?xml version="1.0" encoding="UTF-8"?>
<svg id="uuid-d411baeb-d4ff-40fd-acce-9fd201bfba90" data-name="Layer 1" xmlns="http://www.w3.org/2000/svg" viewBox="0 0 1080 1080">
  <defs>
    <style>
      .uuid-3f8c0f8a-939f-441f-9688-bcb132419e8f {
        fill: #f8acd6;
      }

      .uuid-5a4bb101-4ff9-45ff-99e4-5d49dbb65196 {
        fill: #06602e;
      }
    </style>
  </defs>
  <path class="uuid-5a4bb101-4ff9-45ff-99e4-5d49dbb65196" d="M926.29,505.61c-44.34-37.23-135.88-59.77-193.19-74.91-53.26-14.06-110.4-22.11-165.61-21.7,41.92-47.15,12.11-120.18-53.22-118.58-55.68,1.36-78.67,65.17-48.84,108.32,6.38,9.24,16.24,6.27,19.25,14.21-31.18-.11-64.67.54-95.49,5.06-58.18,8.53-173.35,33.05-222.53,61.34-113.41,65.23-76.74,174.84,27.54,222.24,117.03,53.2,256.52,34.51,379.24,26.91,97.76-6.05,289.88,1.03,356.66-80.96,36.35-44.63,43.24-102.42-3.81-141.92ZM171.18,630.15c-23.13-.14-23.47-33.98-6.98-38.96,35.19-10.63,41.34,39.17,6.98,38.96ZM227.27,538.39c-15.54-4.68-16.62-34.19,4.13-38.04,31.82-5.91,33.99,49.51-4.13,38.04ZM283.82,667.52c-27.68,25.35-48.02-28.51-17.02-33.02,17.9-2.61,32.16,19.16,17.02,33.02ZM342.34,591.98c-20.89,32.04-57.07-25.63-20.26-32.48,18.37-3.42,31.05,15.93,20.26,32.48ZM363.45,465.22c16.14-16.14,48.75,6.43,30.94,28.99-17.09,21.65-50.12-9.8-30.94-28.99ZM409.87,667.26c-17.27-7.83-14.29-31.7,2.76-36.69,35.88-10.48,32.47,52.65-2.76,36.69ZM483.72,557.93c-16.3,16.24-46.31-3.6-32.57-26.7,13.44-22.57,52.88,6.46,32.57,26.7ZM534.59,441.42c21.27-1.92,31.74,34.57,7.05,38.61-34.83,5.7-31.37-36.42-7.05-38.61ZM585.25,629.91c-13.44,22.57-52.88-6.46-32.57-26.7,16.3-16.24,46.32,3.6,32.57,26.7ZM611.8,550.03c-16.24-16.31,3.6-46.33,26.69-32.57,22.57,13.44-6.46,52.89-26.69,32.57ZM719.88,461.13c24.66-2.22,29.83,39.27,2.7,41.72-24.66,2.22-29.83-39.27-2.7-41.72ZM742.05,676.48c-29.05,8.49-32.68-32.55-14.07-38.05,27.27-8.07,40.15,30.43,14.07,38.05ZM749.99,593.61c-34.46,10.39-36.81-31.93-14.07-38.09,22.46-6.09,35.65,31.59,14.07,38.09ZM822.57,538.39c-18.79-5.67-11.86-35.96,7.69-37.8,25.77-2.43,30.15,49.22-7.69,37.8ZM881.74,623.02c-23.65,8.78-35.52-29.04-15.95-35.91,29.07-10.2,40.76,26.7,15.95,35.91Z"/>
  <path class="uuid-3f8c0f8a-939f-441f-9688-bcb132419e8f" d="M164.2,591.2c-16.48,4.98-16.15,38.82,6.98,38.96,34.35.21,28.21-49.59-6.98-38.96Z"/>
  <path class="uuid-3f8c0f8a-939f-441f-9688-bcb132419e8f" d="M322.07,559.5c-36.81,6.85-.63,64.52,20.26,32.48,10.79-16.55-1.89-35.9-20.26-32.48Z"/>
  <path class="uuid-3f8c0f8a-939f-441f-9688-bcb132419e8f" d="M363.45,465.22c-19.19,19.19,13.85,50.64,30.94,28.99,17.81-22.56-14.8-45.14-30.94-28.99Z"/>
  <path class="uuid-3f8c0f8a-939f-441f-9688-bcb132419e8f" d="M231.4,500.35c-20.76,3.85-19.68,33.36-4.13,38.04,38.12,11.47,35.95-43.95,4.13-38.04Z"/>
  <path class="uuid-3f8c0f8a-939f-441f-9688-bcb132419e8f" d="M412.63,630.58c-17.05,4.98-20.03,28.86-2.76,36.69,35.23,15.96,38.64-47.17,2.76-36.69Z"/>
  <path class="uuid-3f8c0f8a-939f-441f-9688-bcb132419e8f" d="M552.68,603.22c-20.31,20.24,19.13,49.27,32.57,26.7,13.75-23.09-16.26-42.94-32.57-26.7Z"/>
  <path class="uuid-3f8c0f8a-939f-441f-9688-bcb132419e8f" d="M638.49,517.46c-23.09-13.75-42.93,16.27-26.69,32.57,20.23,20.32,49.26-19.13,26.69-32.57Z"/>
  <path class="uuid-3f8c0f8a-939f-441f-9688-bcb132419e8f" d="M719.88,461.13c-27.13,2.45-21.95,43.94,2.7,41.72,27.13-2.45,21.95-43.94-2.7-41.72Z"/>
  <path class="uuid-3f8c0f8a-939f-441f-9688-bcb132419e8f" d="M451.16,531.24c-13.75,23.09,16.26,42.94,32.57,26.7,20.31-20.24-19.13-49.27-32.57-26.7Z"/>
  <path class="uuid-3f8c0f8a-939f-441f-9688-bcb132419e8f" d="M727.98,638.42c-18.62,5.51-14.99,46.54,14.07,38.05,26.09-7.62,13.21-46.12-14.07-38.05Z"/>
  <path class="uuid-3f8c0f8a-939f-441f-9688-bcb132419e8f" d="M735.92,555.52c-22.74,6.16-20.38,48.48,14.07,38.09,21.57-6.5,8.39-44.18-14.07-38.09Z"/>
  <path class="uuid-3f8c0f8a-939f-441f-9688-bcb132419e8f" d="M534.59,441.42c-24.31,2.2-27.77,44.31,7.05,38.61,24.69-4.04,14.21-40.54-7.05-38.61Z"/>
  <path class="uuid-3f8c0f8a-939f-441f-9688-bcb132419e8f" d="M830.26,500.59c-19.54,1.84-26.48,32.13-7.69,37.8,37.84,11.42,33.46-40.23,7.69-37.8Z"/>
  <path class="uuid-3f8c0f8a-939f-441f-9688-bcb132419e8f" d="M266.81,634.49c-31,4.51-10.66,58.38,17.02,33.02,15.14-13.87.88-35.63-17.02-33.02Z"/>
  <path class="uuid-3f8c0f8a-939f-441f-9688-bcb132419e8f" d="M865.79,587.11c-19.58,6.87-7.7,44.69,15.95,35.91,24.81-9.21,13.12-46.11-15.95-35.91Z"/>
</svg>