<?xml version="1.0" encoding="UTF-8"?>
<svg id="uuid-ed0371b7-ac21-4b6b-8727-03c1346bb7a9" data-name="Layer 1" xmlns="http://www.w3.org/2000/svg" viewBox="0 0 1080 1080">
  <defs>
    <style>
      .uuid-516563de-873f-4396-aac3-e04284793155 {
        fill: #fd5704;
      }

      .uuid-ff76c9ea-c6fd-49a1-ad8e-7df1d19cde15 {
        fill: #25161c;
      }
    </style>
  </defs>
  <path class="uuid-516563de-873f-4396-aac3-e04284793155" d="M461.12,556.59c19.94,1.43,56.55,13.51,70.63,13.5,21.6-.02,70.56-19.67,99.41-22.36,38.14-3.55,77.01-.72,116.46-5.88,43.19-5.65,95.12-17.24,136.13-31.43-.63-.21-1.22-.47.29-.1-62.21-30.21-54.2-79.75-83.86-134.97-40.01-74.52-104.03-89.06-178.06-49.35-50.91,27.31-57.63,48.51-85.14,93.55-12.29,20.13-23.47-31.31-30.09-42.63-44.71-76.43-124.94-90.2-194.54-36.03-48.1,37.43-112.83,168.74-157.95,185.69-9.75,3.66-16.52,1.07-23.2,2.56,101.38,46.97,221.4,19.64,329.92,27.44Z"/>
  <path class="uuid-516563de-873f-4396-aac3-e04284793155" d="M616.94,561.74c-24.66,2.75-63.02,20.38-85.13,20.86-26.81.59-79.54-15.62-112.8-16.85-28.62-1.06-54.05,4.95-79.96,5.13-68.38.48-140.75-8.86-206-29.02,37.82,37.47,78.48,103.68,118.51,144.32,138.37,140.45,294.91,159.14,456.14,36.94,63.04-47.78,65.89-80.93,108.83-135.88,17.22-22.04,43.03-43.15,62.29-63.34-47.21,7.45-97.49,27.13-144.8,32.58-37.75,4.35-80.19,1.14-117.08,5.26Z"/>
  <path class="uuid-ff76c9ea-c6fd-49a1-ad8e-7df1d19cde15" d="M884.09,510.53c.4.11.63.13-.05-.2-1.52-.38-.92-.11-.29.1-41.02,14.2-92.95,25.79-136.13,31.43-39.45,5.16-78.31,2.33-116.46,5.88-28.86,2.69-77.82,22.34-99.41,22.36-14.07.01-50.68-12.07-70.63-13.5-108.52-7.8-228.53,19.53-329.92-27.44l.23,7.27s.12,1.78,1.62,5.44c65.25,20.16,137.62,29.5,206,29.02,25.91-.18,51.33-6.19,79.96-5.13,33.25,1.23,85.98,17.44,112.8,16.85,22.1-.48,60.46-18.11,85.13-20.86,36.89-4.11,79.33-.9,117.08-5.26,47.31-5.46,97.58-25.13,144.8-32.58,3.49-3.67,3.6-2.76,6.51-8.44l-1.23-4.94Z"/>
</svg>