<?xml version="1.0" encoding="UTF-8"?>
<svg id="uuid-4d1830b2-5a9c-480f-af38-e079a52269c7" data-name="Layer 1" xmlns="http://www.w3.org/2000/svg" viewBox="0 0 1080 1080">
  <defs>
    <style>
      .uuid-99323db3-4ffe-40e4-ac97-79f74c57050c {
        fill: #faf9f8;
      }

      .uuid-f9025b57-8a51-449c-830e-69cb8111cdd6 {
        fill: #6dcbfd;
      }

      .uuid-00687fec-5e13-4907-a20e-b511561b8bc4 {
        fill: #fff;
      }

      .uuid-c9494882-a6d2-425e-a5ed-f9db29d2209d {
        fill: #ff5a07;
      }
    </style>
  </defs>
  <g>
    <path class="uuid-f9025b57-8a51-449c-830e-69cb8111cdd6" d="M837.17,310.83c-30.2-2.52-87.61,18.92-121.72,24.61-98.77,16.5-225.45,13.24-325.74,5.52-43.37-3.34-80.75-18.7-128.01-11.75-48.5,7.13-72.46,53.98-72.39,100.01.13,82.47,77.61,132.72,145.44,160.39,56.68,23.13,113.51,29.33,173.26,39.76-10.23-65.25-22.51-114.04,12.91-176.47,28.85.99,57.21,4.15,86.06,4.3-17.49,42.99-30.56,74.07-25.37,122.22,2,18.55,11.28,38.73,12.46,58.56,56.35-6.66,115.41-24.65,168.89-44.13,54.34-19.79,110.89-38.98,137.42-94.97,26.58-56.1,12.3-181.76-63.2-188.06ZM374.59,564.64s-2.01-42.71-2.55-49.12c-2.74-32.55-.61-45.3-2.61-78.21,21.45.4,44.33,8.35,65.42,11.3l-60.26,116.03ZM708.08,560.5l-32.25-107.58c20.9-2.04,48.89-4.31,68.85-8.61-7.32,39.55-21.3,79.63-36.6,116.19Z"/>
    <path class="uuid-c9494882-a6d2-425e-a5ed-f9db29d2209d" d="M606.97,457.22c-28.85-.15-57.21-3.31-86.06-4.3-35.42,62.43-23.14,111.22-12.91,176.47,9.38,59.82-37.64,79.86-42.96,139.96-4.55,51.41,16.06,63.35,20.97,103.7,2.73,22.49-.93,44.19-3.78,66.23l38.69-68.87v73.17c23.78-24.93,45.72-70.33,43.19-105.36-1.49-20.67-16.95-46.12-16.25-67.8,1.54-47.3,50.06-68.03,46.22-132.43-1.18-19.83-10.46-40.01-12.46-58.56-5.19-48.15,7.88-79.23,25.37-122.22Z"/>
    <path class="uuid-00687fec-5e13-4907-a20e-b511561b8bc4" d="M372.03,515.52c.54,6.41,2.55,49.12,2.55,49.12l60.26-116.03c-21.1-2.95-43.98-10.9-65.42-11.3,2,32.91-.13,45.66,2.61,78.21Z"/>
    <path class="uuid-99323db3-4ffe-40e4-ac97-79f74c57050c" d="M708.08,560.5c15.3-36.56,29.27-76.64,36.6-116.19-19.96,4.3-47.95,6.57-68.85,8.61l32.25,107.58Z"/>
  </g>
  <path d="M591.68,463.2c-38.28,0-75.19-2.42-107.18-5.6-91.78-9.12-163.96-26.29-164.67-26.47-3.32-.79-5.35-4.13-4.56-7.43.79-3.32,4.17-5.34,7.43-4.56,2.84.68,285.82,67.4,449.99,5.11,3.14-1.21,6.74.39,7.95,3.58,1.21,3.18-.39,6.74-3.58,7.95-54.78,20.79-121.97,27.42-185.38,27.42Z"/>
</svg>