<?xml version="1.0" encoding="UTF-8"?>
<svg id="uuid-b711c700-5429-4132-99b0-cb5471d2d65c" data-name="Layer 1" xmlns="http://www.w3.org/2000/svg" viewBox="0 0 1080 1080">
  <defs>
    <style>
      .uuid-8d26812d-1ec2-47f1-bac9-22816c7f458e {
        fill: none;
      }

      .uuid-d7b677ab-9faa-4593-a10f-d82ebf1bfb8e {
        fill: #0d0402;
      }

      .uuid-239c89fc-ed83-4724-84cf-7053242d45bb {
        fill: #fdec1a;
      }
    </style>
  </defs>
  <path class="uuid-8d26812d-1ec2-47f1-bac9-22816c7f458e" d="M531.54,501.79c.31-.43.61-.85.9-1.29-.3.43-.6.85-.9,1.29Z"/>
  <path class="uuid-8d26812d-1ec2-47f1-bac9-22816c7f458e" d="M473.54,496.68c.01.05.03.09.04.14.02-.05.01-.12.03-.17-.03,0-.05.01-.08.02Z"/>
  <path class="uuid-8d26812d-1ec2-47f1-bac9-22816c7f458e" d="M479.62,511.6c-.37-.53-.66-1.18-1.02-1.74.34.58.65,1.2,1.02,1.74Z"/>
  <path class="uuid-8d26812d-1ec2-47f1-bac9-22816c7f458e" d="M480.52,512.74c2.42,3.33,5.21,6.05,8.33,8.05-3.08-2.12-5.88-4.82-8.33-8.05Z"/>
  <path class="uuid-8d26812d-1ec2-47f1-bac9-22816c7f458e" d="M489.22,473c6.3-3.05,8.96-11.94,6.38-17.69,2.58,5.75-.07,14.64-6.38,17.69Z"/>
  <path class="uuid-239c89fc-ed83-4724-84cf-7053242d45bb" d="M699.01,603.85c34.18-5.55,67.76-16.14,101.77-22.42-7.71-40.98-6.42-87.21-9.99-130.92-1.19-14.59-1.45-67.5-7.83-87.48-1.18-3.68-3.78-6.78-7.17-8.63-71.92-39.46-322.3-55.97-464.64-9.09-27.65,9.11-48.3,16.11-55.01,46.12-13.88,62.07-13.13,141.94-30.95,205.78,51.65,9.76,103.73,9.31,155.89,11.67,104.37,4.72,214.19,11.81,317.93-5.02ZM451.22,425.02c40.79-41.79,133.37-10.75,140.7,47.87,8.91,71.32-49.41,98-111.51,83.96-60.03-13.57-67.72-92.35-29.19-131.83Z"/>
  <path class="uuid-239c89fc-ed83-4724-84cf-7053242d45bb" d="M883.18,714.04c-1.63-10.87-64.84-83.82-74.51-105-60.98,11.52-120.75,28.42-183.16,31.71-81.98,4.32-166.88-.59-248.37-4.27-53-2.39-109.01.45-159.83-15.61-22.26,26.02-79.37,64.13-99.55,88.2-3.16,3.76-8.81,8.61-10.02,13.76-.79,3.35,4.64,7.13,7.8,8.5,69,29.93,152.99,46.51,227.11,57.96,139.24,21.52,293.94-4.09,430.59-36.27,24.95-5.88,83.57-19.14,103.66-30.38,4.05-2.27,7.13-2.94,6.29-8.59Z"/>
  <path class="uuid-d7b677ab-9faa-4593-a10f-d82ebf1bfb8e" d="M625.51,640.75c62.41-3.29,122.19-20.19,183.16-31.71-3.96-8.68-6.11-18.17-7.89-27.6-34.02,6.27-67.59,16.87-101.77,22.42-103.74,16.84-213.56,9.75-317.93,5.02-52.16-2.36-104.24-1.91-155.89-11.67-1.64,5.88-3.83,11.83-7.88,23.66,50.82,16.06,106.83,13.22,159.83,15.61,81.5,3.68,166.39,8.59,248.37,4.27Z"/>
  <path class="uuid-d7b677ab-9faa-4593-a10f-d82ebf1bfb8e" d="M480.41,556.84c62.1,14.04,120.42-12.64,111.51-83.96-7.32-58.61-99.9-89.66-140.7-47.87-38.53,39.47-30.85,118.26,29.19,131.83ZM443.79,470.78c11.66-56.63,70.41-62.3,112.42-33.13,24.51,17.02,29.38,64.93,10.7,87.33-36.06,43.26-139.19,23.84-123.12-54.2Z"/>
  <path class="uuid-239c89fc-ed83-4724-84cf-7053242d45bb" d="M566.91,524.98c18.68-22.4,13.8-70.31-10.7-87.33-42.01-29.17-100.76-23.51-112.42,33.13-16.07,78.04,87.06,97.46,123.12,54.2ZM530.77,451.34c15.79-4.73,18.27,20.45,7.81,23.59-15.79,4.73-18.27-20.45-7.81-23.59ZM479.89,451.64c8.74-3.26,13.75-.71,15.71,3.67,2.58,5.75-.07,14.64-6.38,17.69-.9.44-1.87.75-2.92.92-.93.15-1.91.19-2.95.09-7.71-.72-13.6-18.59-3.47-22.37ZM473.54,496.68s.05-.01.08-.02c.78-1.85,3.43-2.08,4.67-2.12,13.66-.47,13.33,22.67,35.86,19.12,8.37-1.32,13.55-6.45,17.39-11.87.3-.43.6-.86.9-1.29,3.59-5.38,6.01-10.79,8.92-12.84,2.68-2.13,8.46-.11,7.82,3.73-5.42,32.34-38.97,44.08-60.33,29.4-3.12-2-5.91-4.72-8.33-8.05-.3-.39-.62-.74-.9-1.15-.36-.55-.68-1.16-1.02-1.74-2.15-3.42-4.01-7.25-5.29-11.74-.06-.55.13-.9.27-1.29-.01-.05-.03-.09-.04-.14Z"/>
  <path class="uuid-d7b677ab-9faa-4593-a10f-d82ebf1bfb8e" d="M478.6,509.85c.35.56.64,1.21,1.02,1.74.28.41.61.76.9,1.15,2.45,3.24,5.25,5.93,8.33,8.05,21.35,14.68,54.91,2.94,60.33-29.4.64-3.84-5.14-5.86-7.82-3.73-2.91,2.05-5.33,7.46-8.92,12.84-.29.43-.59.85-.9,1.29-3.84,5.42-9.02,10.55-17.39,11.87-22.53,3.55-22.2-19.6-35.86-19.12-1.24.04-3.89.27-4.67,2.12-.02.05-.02.11-.03.17-.14.39-.33.74-.27,1.29,1.28,4.5,3.14,8.32,5.29,11.74Z"/>
  <path class="uuid-d7b677ab-9faa-4593-a10f-d82ebf1bfb8e" d="M483.35,474.02c1.04.1,2.02.06,2.95-.09,1.05-.17,2.02-.49,2.92-.92,6.3-3.05,8.96-11.94,6.38-17.69-1.96-4.38-6.97-6.93-15.71-3.67-10.13,3.78-4.25,21.65,3.47,22.37Z"/>
  <path class="uuid-d7b677ab-9faa-4593-a10f-d82ebf1bfb8e" d="M538.58,474.93c10.46-3.13,7.99-28.32-7.81-23.59-10.46,3.13-7.99,28.32,7.81,23.59Z"/>
</svg>