<?xml version="1.0" encoding="UTF-8"?>
<svg id="uuid-cb336d00-cffe-4c61-9696-0d5ae12dac03" data-name="Layer 1" xmlns="http://www.w3.org/2000/svg" viewBox="0 0 1080 1080">
  <defs>
    <style>
      .uuid-f0962c37-8f05-4b51-8bf0-1d4bd9c97530 {
        fill: #ffadda;
      }

      .uuid-4d47bd69-ace7-4505-a8fc-81994f96cd42 {
        fill: #a41c34;
      }
    </style>
  </defs>
  <path class="uuid-f0962c37-8f05-4b51-8bf0-1d4bd9c97530" d="M650.93,319.54c9.93.71,37.42,6.01,51.25,7.89,82.67,11.22,150.4,61.12,183.26,138.08,22.12,51.81,53.2,176.89,37.53,229.74-6.88,6.68-20.8,8.54-30.06,10.26-44.28,8.23-132.73,15.69-176.86,12.24-32.91-2.57-47.06-6.06-70.45-8.14-4.54-8.88-6.92-10.45-12.17-16.1-52.23-56.14-151.19-130.38-228.95-137.31-22.15-1.98-112.05-3.1-128.07,3.88,3.11-8.59,28.32-44.19,31.9-50.62,27.71-49.86,93.48-128.12,141.89-156.08,57.18-33.04,135.94-38.45,200.74-33.84Z"/>
  <path class="uuid-4d47bd69-ace7-4505-a8fc-81994f96cd42" d="M645.59,709.61c-25.75,3.63-70.4,41.89-97.22,53.5-118.01,51.06-249.9-20.9-365.03-44.88-26.11-5.44-78.78,5.88-85.9-4.19-8.59-15.59,16.14-29.71,29.09-41.63,23.81-21.93,124.45-101.25,149.87-112.33,16.01-6.98,105.92-5.86,128.07-3.88,77.77,6.94,169.4,69.96,221.63,126.11,5.25,5.65,15.37,17.18,19.5,27.3Z"/>
  <path class="uuid-4d47bd69-ace7-4505-a8fc-81994f96cd42" d="M702.18,327.43c-13.83-1.88-41.32-7.18-51.25-7.89,11.43-42.29,61.34-45.79,51.25,7.89Z"/>
</svg>