<?xml version="1.0" encoding="UTF-8"?>
<svg id="uuid-f3cd1747-66ad-4b59-8357-12598461823d" data-name="Layer 1" xmlns="http://www.w3.org/2000/svg" viewBox="0 0 1080 1080">
  <defs>
    <style>
      .uuid-43d5bac6-6ff9-46bc-9344-1c70d6245744 {
        fill: #0d0402;
      }

      .uuid-5d1263ae-aa50-4da9-b45f-5555a4a3026f {
        fill: #fdadd9;
      }
    </style>
  </defs>
  <path class="uuid-5d1263ae-aa50-4da9-b45f-5555a4a3026f" d="M942.33,550.11c-2.24-3.64-10.08-6.07-14.44-6.74-234.48,13.98-468.79,5.08-703.3-.27-34.42-.79-74.17-4.53-108.42-3.64-43.43,1.14-28.9,26.43-10.66,49.23,49.81,62.28,157.78,145.92,241.19,136.13,84.52-9.92,100.17-113.32,161.69-121.85,16.7-2.31,36.65-1.28,49.28,11.36,12.66,12.67,26.6,41.89,41.38,58.4,94.22,105.19,203.18,33.79,285.38-43.77,11.99-11.31,67.83-62.78,57.91-78.86ZM341.97,681.65c-36.22,5.29-97.48-26.82-125.87-49.52-8.96-7.16-55.66-49.63-45.77-60.96,42.05,3.09,86.09,10.89,127.77,13.96,38.16,2.8,78.69-2.99,115.73,6.78,33.13,41.7-36.31,84.55-71.86,89.74ZM852.76,611.31c-22.04,25.87-88.23,72.95-121.49,78.02-32.98,5.03-105.44-21.89-112.09-57.73-3.76-20.25-3.4-34.6,19.24-38.62,35.51-6.3,84.76-1.94,121.64-4.37,14.62-.96,106.22-14.42,110.29-10.45,5.07,4.95-13.6,28.45-17.6,33.14Z"/>
  <path class="uuid-43d5bac6-6ff9-46bc-9344-1c70d6245744" d="M760.07,588.62c-36.88,2.42-86.13-1.93-121.64,4.37-22.64,4.01-23,18.37-19.24,38.62,6.65,35.84,79.11,62.76,112.09,57.73,33.26-5.07,99.44-52.16,121.49-78.02,4-4.69,22.66-28.19,17.6-33.14-4.06-3.97-95.66,9.49-110.29,10.45Z"/>
  <path class="uuid-43d5bac6-6ff9-46bc-9344-1c70d6245744" d="M298.1,585.12c-41.68-3.06-85.73-10.87-127.77-13.96-9.89,11.33,36.81,53.8,45.77,60.96,28.39,22.7,89.65,54.8,125.87,49.52,35.55-5.19,104.99-48.04,71.86-89.74-37.05-9.77-77.57-3.98-115.73-6.78Z"/>
</svg>