<?xml version="1.0" encoding="UTF-8"?>
<svg id="uuid-2cb13dab-c7e6-49e3-a0ac-054aea48e0cc" data-name="Layer 1" xmlns="http://www.w3.org/2000/svg" viewBox="0 0 1080 1080">
  <defs>
    <style>
      .uuid-97e87c71-ef74-4489-ad58-36358b1ef876 {
        fill: #f8acd6;
      }

      .uuid-4243e6b8-f193-45da-9f59-080ea565f1bd {
        fill: #a41c34;
      }
    </style>
  </defs>
  <path class="uuid-4243e6b8-f193-45da-9f59-080ea565f1bd" d="M701.51,643.36c15.74-1.52,28.82-8.99,44.01-11.79-.34-83.19,10.28-170.51-24.79-248.3-29.67-65.81-97.42-93.88-151.5-36.68-25.35,26.82-34.56,58.87-49.8,91.14-21.98-86.51-65.27-164.59-158.34-87.91-68.18,56.17-85.68,185.57-91.17,270,71.29,23.92,146.32,20.58,220.43,23.25,69.87,2.52,140.54,7.12,211.16.29Z"/>
  <path class="uuid-4243e6b8-f193-45da-9f59-080ea565f1bd" d="M958.64,627.36c-29.17-55.02-74.66,24.8-109.23,46.45-36.18,22.67-60.35,21.1-98.02,28.23-1.53.29-3.08.53-4.61.82,0,.01,0,.03,0,.05-117.61,22.26-241.77,21.68-362.3,10.83-33.64-3.03-83.05-7.93-114.56-17.56-69.82-21.34-69.57-56.1-108.48-100-24.42-27.55-53.48-26.25-56.33,14.55-5.03,72.14,49.87,118.63,112.09,141.11,145.05,52.4,533.3,47.98,669.34-23.26,41.25-21.6,86.34-55.01,72.09-101.22Z"/>
  <path class="uuid-97e87c71-ef74-4489-ad58-36358b1ef876" d="M746.78,702.91s0-.03,0-.05c-.87-20.59-1.17-49.1-1.26-71.29-15.19,2.8-28.27,10.27-44.01,11.79-70.62,6.83-141.29,2.23-211.16-.29-74.11-2.67-149.14.67-220.43-23.25-1.64,25.19,1.16,51.09,0,76.35,31.5,9.63,80.91,14.53,114.56,17.56,120.54,10.85,244.69,11.44,362.3-10.83Z"/>
</svg>