<?xml version="1.0" encoding="UTF-8"?>
<svg id="uuid-43591a71-023b-439b-9afd-7ebe2ebaaee7" data-name="Layer 1" xmlns="http://www.w3.org/2000/svg" viewBox="0 0 1080 1080">
  <defs>
    <style>
      .uuid-d215a809-c6cc-446e-bb89-aa27e6a2edbf {
        fill: #0d0402;
      }

      .uuid-34f56186-d251-4d74-8f4b-fd795542fb30 {
        fill: #fdec1a;
      }
    </style>
  </defs>
  <path class="uuid-34f56186-d251-4d74-8f4b-fd795542fb30" d="M909.82,586.66c61.22-72.23,21.46-169.16-79.71-130.38,3.88-88.14-112.39-104.68-144.12-30.33-29.63-16.43-57.42-34.76-90.73-13.09-34.88,22.7-39.78,70.03-19.14,104.03-26.64,4.22-42.37,23.31-54.97,45.52-11.73-27.76-27.34-50.31-58.73-56.91,35.48-59.2-10.55-135.51-81.62-106.23-10.55,4.35-17.2,13.69-28.23,15.3-32.59-72.86-147.1-59.05-144.12,30.34-100.77-36.99-140.46,57.61-79.82,130.25-80.19,53.7-32.98,162.55,60.58,143.06,3.05,25.77,25.18,64.2,50.63,72.54,33.75,11.06,107.95-4.82,108.93-50.17,37.92,13.8,72.43,24.88,110.41,2.43,38.55-22.79,32.68-68.83,18.51-104.65,18.71-1.59,30.09-16.45,39.72-30.45,7.57,21.13,20.93,35.92,43.32,41.98-12.58,32.3-18.8,75.21,11.77,100.02,33.83,27.47,80.67,15.25,117.32,2.03,3.7,40.58,62.43,57.15,96.78,53.18,31.96-3.69,59.49-45.36,62.81-75.53,94.08,16.95,141.3-89.63,60.42-142.95ZM391.99,656.87c-35.42,45.06-93.86,45.24-143.84,27.02-116.21-42.38-65.47-193.23,42.89-203.79,88.82-8.66,160.39,101.17,100.95,176.78ZM756.16,699.19c-26.93.11-81.15-17.1-102.23-34.5-61.46-50.73-25.58-166.23,53.95-177.11,71.47-9.77,142.52,22.55,152.19,99.8,7.12,56.93-47.7,111.58-103.91,111.8Z"/>
  <path class="uuid-d215a809-c6cc-446e-bb89-aa27e6a2edbf" d="M707.88,487.59c-79.53,10.87-115.41,126.38-53.95,177.11,21.08,17.4,75.3,34.6,102.23,34.5,56.21-.22,111.03-54.88,103.91-111.8-9.67-77.25-80.72-109.57-152.19-99.8Z"/>
  <path class="uuid-d215a809-c6cc-446e-bb89-aa27e6a2edbf" d="M291.05,480.09c-108.36,10.56-159.11,161.42-42.89,203.79,49.97,18.22,108.41,18.04,143.84-27.02,59.44-75.61-12.12-185.44-100.95-176.78Z"/>
</svg>