<?xml version="1.0" encoding="UTF-8"?>
<svg id="uuid-063f647c-5abd-458c-aa23-d80bedefc1b9" data-name="Layer 1" xmlns="http://www.w3.org/2000/svg" viewBox="0 0 1080 1080">
  <defs>
    <style>
      .uuid-a6d868a7-e879-4dd8-bcc3-d029d2f84cec {
        fill: none;
      }

      .uuid-ce7ce8d3-35da-4702-8de5-ca897741b832 {
        fill: #eeeff1;
      }

      .uuid-e297e673-83f1-4b14-a6f9-782449b60aa8 {
        fill: #faf9f8;
      }

      .uuid-46ce6f81-1821-45d4-b259-a25aff30ddf1 {
        fill: #13ce56;
      }

      .uuid-e9e423bc-44ad-4f49-9d94-34b6a92c17a6 {
        fill: #020201;
      }
    </style>
  </defs>
  <path class="uuid-a6d868a7-e879-4dd8-bcc3-d029d2f84cec" d="M502.82,623.2c-9.64-1.2-6.26.03-8.26,5.52-16.76,45.92-25.12,98.38-42.96,144.34,17.84-45.96,19.62-72.66,36.38-118.58,2-5.49,11.3-26.16,14.85-31.28Z"/>
  <path class="uuid-a6d868a7-e879-4dd8-bcc3-d029d2f84cec" d="M416.64,749.87l-8.45-146.36,2.65,146.36c.4.38-.09.42,3.96,3.65-4.05-3.23,2.24-3.27,1.84-3.65Z"/>
  <path class="uuid-46ce6f81-1821-45d4-b259-a25aff30ddf1" d="M663.1,202.67c-70.58-58.06-185.78-65.1-258.92-7.41-108.31,85.43-151.59,374.67-117.85,500.59,42.91,160.16,191.69,231.04,339.93,147.42,189.7-107,200.38-506.07,36.84-640.6ZM652.66,702.08c-19.67,29.77-27.72,50.26-63.08,67.04-12.36,5.86-46.22,18.27-59.14,19.72-36.01,4.02-48.54-1.21-78.85-15.77-8.91-4.28-30.24-14.29-36.8-19.53-4.05-3.23-3.56-3.27-3.96-3.65-27.39-26.28-27.77-39.8-38.09-75.4-27.49-94.83-5.61-276.39,37.39-366.78,7.27-15.29,11.51-19.03,18.5-26.21.77-.79,3.66-3.75,7.38-6.91,19.76-16.77,34.23-21.48,58.93-25.98,16.48-3.01,29.08-5.66,47.31-3.94,29.4,2.77,37.62,8.26,59.14,23.66,70.05,50.14,95.15,130.84,102.46,214.95,8.31,95.57,1.36,139.27-51.21,218.81Z"/>
  <path class="uuid-e9e423bc-44ad-4f49-9d94-34b6a92c17a6" d="M703.87,483.26c-7.31-84.11-32.41-164.82-102.46-214.95l-19.23,61.39-12.26,37.16c-15.14-39.08-28.14-79.6-27.65-122.21-18.22-1.72-30.83.94-47.31,3.94l-19.75,118.28-29.78-56.05-16.78-29.33c-6.99,7.18-11.23,10.92-18.5,26.21-43,90.39-64.89,271.94-37.39,366.78l35.44-70.96,8.45,146.36c.4.38-5.89.42-1.84,3.65,6.56,5.24,27.89,15.25,36.8,19.53,17.84-45.96,26.21-98.42,42.96-144.34,2-5.49-1.38-6.72,8.26-5.52l27.62,165.63c12.92-1.44,46.78-13.85,59.14-19.72l31.59-149.82c5.98,3.04,11.34,17.44,13.67,23.71,6.85,18.42,11.05,40.27,17.82,59.07,52.57-79.55,59.52-123.24,51.21-218.81Z"/>
  <path class="uuid-e297e673-83f1-4b14-a6f9-782449b60aa8" d="M487.97,654.48c-16.75,45.92-18.54,72.62-36.38,118.58,30.31,14.56,42.83,19.79,78.85,15.77l-27.62-165.63c-3.54,5.12-12.85,25.8-14.85,31.28Z"/>
  <path class="uuid-ce7ce8d3-35da-4702-8de5-ca897741b832" d="M621.17,619.3l-31.59,149.82c35.36-16.78,43.41-37.27,63.08-67.04-6.77-18.8-10.97-40.65-17.82-59.07-2.33-6.27-7.69-20.67-13.67-23.71Z"/>
  <path class="uuid-e297e673-83f1-4b14-a6f9-782449b60aa8" d="M582.18,329.7l19.23-61.39c-21.52-15.4-29.74-20.89-59.14-23.66-.5,42.62,12.51,83.13,27.65,122.21l12.26-37.16Z"/>
  <path class="uuid-ce7ce8d3-35da-4702-8de5-ca897741b832" d="M445.43,310.82l29.78,56.05,19.75-118.28c-24.7,4.51-39.18,9.21-58.93,25.98-3.72,3.16-6.61,6.12-7.38,6.91l16.78,29.33Z"/>
  <path class="uuid-ce7ce8d3-35da-4702-8de5-ca897741b832" d="M372.75,674.48c10.32,35.6,10.7,49.12,38.09,75.4l-2.65-146.36-35.44,70.96Z"/>
</svg>