<?xml version="1.0" encoding="UTF-8"?>
<svg id="uuid-e2204685-e672-4d47-a605-10a1dab7ab0c" data-name="Layer 1" xmlns="http://www.w3.org/2000/svg" viewBox="0 0 1080 1080">
  <defs>
    <style>
      .uuid-b356ab09-52f2-4e86-a3b1-054f65383067 {
        fill: #faf9f8;
      }

      .uuid-43d6124b-cf05-4b67-b611-a3c4e1678a2d {
        fill: #060303;
      }

      .uuid-98ba8705-ad0b-4f92-96d7-5a19082f20da {
        fill: #fdacd9;
      }
    </style>
  </defs>
  <path class="uuid-98ba8705-ad0b-4f92-96d7-5a19082f20da" d="M851.03,434.34c-48.98-97.75-141.45-134.45-243.49-89.68-14.73,6.46-77.06,49.27-81.84,49.3-10.16.07-29.75-31.54-40.58-40.9-28.13-24.33-48.31-27.5-84.59-25.66-118.64,6.04-192.7,57.67-258.82,152.45,16.48,149.33,169.71,250.04,308.41,269.66,137.48,19.45,305.5-21.76,378.28-147.79,36.4-63.02,57.37-98.06,22.63-167.38ZM765.85,575.29c-142.04,67.35-328.78,73.45-472.72,10.46-51.84-22.68-100.13-55.5-144.58-90.32,24.53-10.06,51.09-5.53,76.76-6.75,48.1-2.29,96.65-7.64,144.54-9.04,3.01-.09,6.03.08,9.03,0,48.02-1.29,96.49.33,144.54,0,3.01-.02,6.02.01,9.03,0,43.55-.17,87.46-.78,130.99,0,1.51.03,3.01-.03,4.52,0,40.82.8,76.52.58,117.44,4.52,26.23,2.53,52.36,1.79,76.74,13.68,11.51,15.88-81.76,70.55-96.3,77.45Z"/>
  <path class="uuid-43d6124b-cf05-4b67-b611-a3c4e1678a2d" d="M862.14,497.84c-24.38-11.89-50.51-11.15-76.74-13.68-12.89,90.07-122.76,99.1-117.44-4.52-1.51-.03-3.01.03-4.52,0-9.85,53.26-48.42,103.09-107.02,77.67-36.52-15.84-21.12-44.66-23.97-77.67-3.01.01-6.02-.02-9.03,0-10.61,111.43-148.59,120.12-144.54,0-3.01.08-6.03-.09-9.03,0-18.84,88.3-127.78,107.49-144.54,9.04-25.68,1.22-52.23-3.31-76.76,6.75,44.46,34.81,92.74,67.63,144.58,90.32,143.94,62.99,330.68,56.89,472.72-10.46,14.54-6.89,107.81-61.57,96.3-77.45Z"/>
  <path class="uuid-b356ab09-52f2-4e86-a3b1-054f65383067" d="M523.42,479.64c-48.05.33-96.53-1.29-144.54,0-4.05,120.12,133.93,111.43,144.54,0Z"/>
  <path class="uuid-b356ab09-52f2-4e86-a3b1-054f65383067" d="M556.43,557.31c58.6,25.42,97.16-24.41,107.02-77.67-43.53-.78-87.44-.17-130.99,0,2.86,33-12.55,61.83,23.97,77.67Z"/>
  <path class="uuid-b356ab09-52f2-4e86-a3b1-054f65383067" d="M369.85,479.64c-47.89,1.4-96.44,6.74-144.54,9.04,16.76,98.45,125.7,79.27,144.54-9.04Z"/>
  <path class="uuid-b356ab09-52f2-4e86-a3b1-054f65383067" d="M785.4,484.16c-40.92-3.94-76.61-3.72-117.44-4.52-5.32,103.62,104.55,94.58,117.44,4.52Z"/>
</svg>