<?xml version="1.0" encoding="UTF-8"?>
<svg id="uuid-32ca4d4f-a052-47df-b26c-cc0814fcd311" data-name="Layer 1" xmlns="http://www.w3.org/2000/svg" viewBox="0 0 1080 1080">
  <defs>
    <style>
      .uuid-d9a89823-bae1-4325-908d-5252dc20d0c1 {
        fill: #ff5a07;
      }

      .uuid-ea0e64b4-dda5-414f-9d3d-dfb12cffa08f {
        fill: #fdacd9;
      }
    </style>
  </defs>
  <path class="uuid-ea0e64b4-dda5-414f-9d3d-dfb12cffa08f" d="M395.46,490.02c-27.02-16.97-68.42,7.17-90.58,25.04-9.88,7.97-31.06,37.04-41.82,34.29-16.46-4.2-39.96-67.05-88.49-64.44-58.48,3.16-69.74,60.3-56.19,108.25,13.52,47.83,81.26,133.48,118.57,167.48,19.84,18.08,35.19-2.44,52.47-17.45,30.08-26.12,110.38-111.06,126.23-144.39,17.52-36.84,17.55-85.08-20.2-108.79Z"/>
  <path class="uuid-d9a89823-bae1-4325-908d-5252dc20d0c1" d="M876.86,448.34c-54.04-8.09-80.76,20.87-113.65,57.59-66.45-85.65-180.38-99.57-211.77,24.23-22.22-13.22-50.04-16.34-78.38.28-27.27-124.77-133.79-110.55-203.05-27.16-31.65-37.79-57.4-67.61-111.68-61.33-83.51,9.67-99.92,109.64-76.52,176.2,19.78,56.27,102.28,160.45,147.44,200.5,19.05,16.89,29.7,9.59,46.59-4.01,30.85-24.83,76.66-74.07,104.43-104.33,23.35-25.43,75.78-93.96,92.02-118.05,9.86-14.63,55.27-30.48,79.14-2.97,21.31,23.85,72.2,93.7,94.69,119.89,26.76,31.16,70.9,81.9,100.91,107.73,16.44,14.15,26.84,21.81,46.43,5.55,46.46-38.53,132.37-139.92,154.01-195.5,25.6-65.75,12.52-166.2-70.63-178.64ZM415.66,598.8c-15.85,33.33-96.14,118.27-126.23,144.39-17.29,15.01-32.64,35.53-52.47,17.45-37.31-34-105.05-119.65-118.57-167.48-13.56-47.95-2.29-105.1,56.19-108.25,48.53-2.62,72.02,60.24,88.49,64.44,10.76,2.75,31.94-26.33,41.82-34.29,22.16-17.87,63.57-42.01,90.58-25.04,37.75,23.71,37.72,71.94,20.2,108.79ZM913.29,598.52c-15.1,47.35-84.33,137.42-122.75,170.17-20.43,17.41-40.67-8.77-57.45-24.34-29.2-27.11-105.3-116.07-120.03-149.9-16.29-37.4-14.72-85.62,23.8-108.06,27.56-16.06,68.14,9.43,89.7,28.03,9.61,8.29,29.81,38.05,40.66,35.66,16.59-3.65,42.16-65.69,90.58-61.46,58.34,5.09,70.64,62.43,55.49,109.9Z"/>
  <path class="uuid-ea0e64b4-dda5-414f-9d3d-dfb12cffa08f" d="M857.79,488.62c-48.41-4.23-73.98,57.81-90.58,61.46-10.85,2.39-31.05-27.37-40.66-35.66-21.56-18.6-62.14-44.09-89.7-28.03-38.52,22.44-40.09,70.65-23.8,108.06,14.73,33.83,90.83,122.8,120.03,149.9,16.78,15.58,37.02,41.76,57.45,24.34,38.42-32.75,107.65-122.82,122.75-170.17,15.14-47.47,2.85-104.8-55.49-109.9Z"/>
</svg>