<?xml version="1.0" encoding="UTF-8"?>
<svg id="Layer_1" xmlns="http://www.w3.org/2000/svg" version="1.1" viewBox="0 0 1080 1080">
  <!-- Generator: Adobe Illustrator 30.0.0, SVG Export Plug-In . SVG Version: 2.1.1 Build 123)  -->
  <defs>
    <style>
      .st0 {
        fill: none;
      }

      .st1 {
        fill: #a71f37;
      }

      .st2 {
        fill: #feaedb;
      }

      .st3 {
        fill: #fcabd7;
      }
    </style>
  </defs>
  <polygon class="st0" points="677.05 249.41 677.05 249.41 677.05 249.41 677.05 249.41"/>
  <path class="st0" d="M593.15,401.03c-2.21.91-4.29,1.66-6.23,2.24,2.01-.52,4.1-1.29,6.23-2.24Z"/>
  <path class="st0" d="M615.08,395.41c2.35-1.58,4.68-3.27,6.95-5.09-2.47,1.87-4.78,3.56-6.95,5.09Z"/>
  <path class="st0" d="M627.66,432.22c23.09-10.88,43.09-34.65,53.16-53.91-9.84,18.81-30.12,42.4-53.16,53.91Z"/>
  <path class="st2" d="M690.83,461.41c-34.96,21.72-112.13,33.28-78.1-17.75-13.52,3.58-23.46.24-28.7-3.38-6.11-4.22-9.68-19.59-10.25-27.22,1.68,30.86,12.48,73.2,3.36,103.87-1.52,5.12,1.05,7.7-6.74,6.38-1.03-15.86,3.37-29.86,3.06-45.9-.83-43.66-12.92-93.26-14.86-138.76-1.64-38.38,5.23-91.28-.22-126.82-3.46-22.59-23.06-29.73-39.79-13.58-29.07,28.05-7.98,78.41-27.08,108.82-9.92,15.79-27.63,44.16-36.93,67.69-7.5,19.01-8.52,33.11-8.68,59.15,0,1.62-7.59,2.66-8.45.76-2.36-53.36,11.83-70.68,30.75-106.05,4.15-7.75,17.02-28.03,18.09-32.35,0,0-7.39-6.22-19.31-24.08-38.64,25.01-52.14,53.39-60.59,97.47-16.71,87.09,9.88,134.31,15.9,214.61,3.4,45.36-18.72,99.87-32.97,143.53-8.22,25.21-72.3,195.96-66.6,205.64,55.94,29.78,123.19,45.3,185.42,56.45,16.48-47.38,30.64-95.85,47.43-143.12,32.35-91.08,60.06-192.28,95.29-279.92,16.4-40.81,47.32-84.6,65.36-126.46-6.35,6.53-19.01,17.05-25.38,21.02Z"/>
  <path class="st1" d="M609.53,464.39c1.95-20.41,17.93-22.22,34.68-33.11,29.62-19.26,68.96-89.53,70.95-123.62,0,0-1.37-.72-2.04-.63-13.41,34.84-19.17,46.14-32.25,71.22-.01.02-.03.05-.04.07-10.07,19.25-30.07,43.03-53.16,53.91-11.43,5.71-23.53,8.45-35.38,6.16-9.48-1.83-11.92-17.15-11.87-23.92.01-1.48.54-2.88,1.95-3.33,5.38-1.74,19.33-6.75,32.72-15.72,2.17-1.53,4.48-3.22,6.95-5.09,0,0,0,0,0,0,33.85-27.24,53.57-80.46,58.4-125.18,0-.03,0-.05,0-.08.42-3.86.73-7.66.93-11.38-1.92-1.71-2.6-2.76-4.31-4.25,0,0,0,0,0,0l-.02-.02s0,0,0,0c-7.64,48.3-1.48,44.83-26.86,97.9-13.39,28-39.02,46.28-57.03,53.73-2.13.95-4.23,1.72-6.23,2.24-6.8,2.05-11.75,2.08-13.27-.02-5.04-6.93-5.94-31.5-5.94-31.5,6.7-2.23,21.44-8.65,30.46-19.08.02-.03.05-.05.07-.08.59-.68,1.16-1.39,1.69-2.11.66-.88,1.29-1.76,1.9-2.65,26.34-37.79,12.94-74.14,14.45-108.56,0,0,39.6-46.94,45.64-63.81,6.83-19.06,14-46.5,9.08-66.15-18.25-72.87-86.57-67.21-137.3-26.27-23.85-36.11-50.6-50.91-94-34.61-15.56,5.84-27.74,18.53-34.37,33.59-32.05,72.76,24.13,133.96,61.66,190.18,11.92,17.85,19.31,24.08,19.31,24.08-1.07,4.32-13.95,24.6-18.09,32.35-18.92,35.37-33.1,52.68-30.75,106.05.86,1.9,8.44.86,8.45-.76.16-26.04,1.17-40.15,8.68-59.15,9.29-23.54,27.01-51.9,36.93-67.69,19.1-30.42-1.99-80.78,27.08-108.82,16.73-16.15,36.33-9.01,39.79,13.58,5.45,35.54-1.42,88.44.22,126.82,1.94,45.5,14.03,95.1,14.86,138.76.31,16.04-4.09,30.04-3.06,45.9,7.79,1.31,5.22-1.27,6.74-6.38,9.12-30.67-1.69-73.02-3.36-103.87.57,7.63,4.14,23,10.25,27.22,5.24,3.62,15.18,6.96,28.7,3.38-34.04,51.03,43.13,39.47,78.1,17.75,6.38-3.96,19.03-14.48,25.38-21.02,3.37-7.83,1.53-3.05,4.85-11.61-13.24,9.41-26.08,24.42-40.41,31.97-12.59,6.63-70.76,26.17-71.13,3.63ZM565.57,286.92l43.95-41.85c-1.3,18.62,1.5,32.07,1.9,50.49.57,26.06-14.46,62.45-43.72,68.3-2.95-22.47-2.13-73.27-2.13-76.94Z"/>
  <path class="st3" d="M715.16,307.65c-1.99,34.09-41.33,104.36-70.95,123.62-16.75,10.89-32.73,12.71-34.68,33.11.36,22.54,58.54,3,71.13-3.63,14.33-7.55,27.17-22.56,40.41-31.97,14.31-36.88,51.7-127.24-5.91-121.13Z"/>
  <path class="st3" d="M680.43,265.13c-4.84,44.73-24.56,97.94-58.4,125.18,0,0,0,0,0,0-2.27,1.82-4.6,3.52-6.95,5.09-13.39,8.97-27.34,13.98-32.72,15.72-1.41.45-1.94,1.86-1.95,3.33-.05,6.77,2.39,22.09,11.87,23.92,11.85,2.29,23.96-.45,35.38-6.16,23.04-11.51,43.32-35.1,53.16-53.91.01-.02.03-.05.04-.07,13.09-25.08,18.84-36.38,32.25-71.22.43-15.56.66-33.97-10.81-46.45-4.02-4.37-14.08-7.7-20.94-6.91h0c-.19,3.72-.51,7.52-.93,11.38,0,.03,0,.05,0,.08Z"/>
  <path class="st3" d="M601.83,347.84c-.61.88-1.24,1.76-1.9,2.65-.54.72-1.1,1.42-1.69,2.11-.02.03-.05.05-.07.08-9.02,10.43-23.76,16.85-30.46,19.08,0,0,.9,24.58,5.94,31.5,1.52,2.09,6.47,2.06,13.27.02,1.94-.58,4.03-1.33,6.23-2.24,18.01-7.44,43.64-25.73,57.03-53.73,25.38-53.07,19.23-49.6,26.86-97.9h0s0,0,0,0l.02.02s0,0,0,0c-.71-4.99-4.37-9.82-9.25-14.08-15.55-13.58-32.93-4.53-51.54,3.94-1.51,34.42,11.89,70.77-14.45,108.56Z"/>
  <path class="st3" d="M611.42,295.56c-.4-18.42-3.19-31.87-1.9-50.49l-43.95,41.85c0,3.67-.82,54.47,2.13,76.94,29.26-5.85,44.28-42.24,43.72-68.3Z"/>
</svg>