<?xml version="1.0" encoding="UTF-8"?>
<svg id="Layer_1" xmlns="http://www.w3.org/2000/svg" version="1.1" viewBox="0 0 1080 1080">
  <!-- Generator: Adobe Illustrator 30.0.0, SVG Export Plug-In . SVG Version: 2.1.1 Build 123)  -->
  <defs>
    <style>
      .st0 {
        fill: #feaedb;
      }

      .st1 {
        fill: #302129;
      }
    </style>
  </defs>
  <path class="st0" d="M449.73,172.07c2.7-17.26,18.55-47.28,37.54-50.93,39.85-7.66,51.88,48.46,53.88,77.32,3.76,54.15-2.09,113.19-.24,168.12.68,20.11,5.73,42.07,3.08,63.19,2.51,2.73,55.6-34.83,62.8-38.78,26.3-14.43,82.43-41.01,104.61-9.35,23.52,33.57-13.99,54.18-36.91,71.16-31.74,23.52-63.54,38.04-85.81,73.23-49.48,78.16-7.7,105.48,56.4,142.83,71.95,41.92,148.56,60.51,231.72,64.27l-2.94,217.98c-24.33-.97-50.89-.91-75.09-2.99-176.34-15.21-428.03-127.95-529.97-277.02-56.7-82.91-45.89-175.85-51.77-269.25-4.07-64.53-28.69-187.19-.5-245.01,9.67-19.84,24.44-31.19,45.74-18.17,17.29,10.58,21.58,50.1,24.62,69.62,5.63,36.19,3.45,76.37,9.7,112.52,6.02-4.69,12.2-16.11,20.74-18.98,23.47-7.88,37.61,7.59,50.99,24.86,12.58-35.55,59.68-41.11,87.28-17.64l-5.87-136.97ZM296.6,320.78c-5.11,4.86,8.2,122.51,13.08,138.61,10.38,34.28,46.54,34.45,63.22-2.61l14.9,27.58c51.05,29.92,60.25-39.13,64.52-74.11,4.11-33.64,3.58-67.35,3.31-101.22.04,4.73-.97,12.82-1.89,17.87-3.18,17.45-5.67,34.8-6.96,54.25-1.36,20.55-8.12,78.87-20.54,93.5-9.84,11.6-27.52,10.82-37.05-.52-21.16-25.19-12.99-103.66-21.31-137.01l.1-4.06c-1.31,37.84,6.93,68.94,4.45,106.86-.5,7.67-7.43,28.13-9.38,34.22-7.91,24.71-43.54,1.32-49.22-17.19"/>
  <path class="st1" d="M455.61,309.03c.27,33.87.8,67.58-3.31,101.22-4.27,34.98-9.47,103.66-64.33,77.09-8.75-4.24-14.68-26.54-14.68-26.54-11.86,51.68-52.72,38.2-63.62-1.41-13.89-50.48-17.7-137.36-13.08-138.61,0,0,2.15,28.98,20.66,132.29,3.35,18.68,28.74,46.74,45.65,13.41,3.44-6.77,3.99-18.61,4.49-26.28,2.48-37.92-3.47-76.39.93-113.53h0c10.12,32.64-.31,122.27,20.85,147.46,9.53,11.34,27.2,12.11,37.05.52,12.42-14.63,19.18-72.95,20.54-93.5,1.29-19.44-1.1-44.02,2.09-61.46.92-5.05,3.25-7.76,6.76-10.65Z"/>
  <path class="st1" d="M505.68,465.13c4.99,4.75-22.5,17.45-27.49,21.08-31.33,22.81-72.59,62.71-84.44,99.66l-7.44-2.91c-2.36-2.84-.11-5.43.59-8.21,3.81-15.34,38.44-55.07,50.96-67.02,7.1-6.77,60.64-49.44,67.82-42.59Z"/>
</svg>