<?xml version="1.0" encoding="UTF-8"?>
<svg id="Layer_1" xmlns="http://www.w3.org/2000/svg" version="1.1" viewBox="0 0 1080 1080">
  <!-- Generator: Adobe Illustrator 30.0.0, SVG Export Plug-In . SVG Version: 2.1.1 Build 123)  -->
  <defs>
    <style>
      .st0 {
        fill: #152f1f;
      }

      .st1 {
        fill: #67df92;
      }

      .st2 {
        fill: #050805;
      }
    </style>
  </defs>
  <path class="st1" d="M575.9,173.23c-6.02,8.92-24.04,26.21-24.12,36.6-.07,8.54,20.21,22.83,28.32,18.05,4.19-2.47,13.23-36.83,19.14-44.94,1.11,3.14,7.74,8.9,8.64,17.21,4.15,38.2-31.84,82.63-43.35,117.76,17.43-6.15,45.98,10.05,45.98,28.42v40.58l-.02,2.71c18.3-8.16,34.21-5.03,44.47,12.36,11.71,19.84,4.66,33.69-1.17,53.92-2.89.21-5.48,10.86-7.84,12.49-3.38,2.35-38.85,47.58-42.59,54.76-5.5,10.58-3.66,17.82,5.26,7.88,5.37-5.98,14.05-19.34,19.22-26.69,10.78-15.32,20.99-31.21,25.95-48.45,23.8-1.74,36.64,12.04,39.87,34.52,6.95,48.4-54.34,157.47-66.18,213.76-8.28,39.38-3.65,78.88-8.97,118.18l2.83,144.86-194.97-9.31c-2.76-1.9-2.31-5.28-2.66-8.16-10.74-88.97,16.87-192.43,10.93-281.46-5.93-88.72-78.82-150.34-34.76-248.53,14.29-31.83,54.5-67.8,53.8-103.05-.17-8.48-7.63-48.43-10.9-55.6,8.39-4.86,27.82-10.2,27.09-22.74-.67-11.59-20.91-41.8-35.21-42.18.8-.51,3.53-4.63,18.03-6.05,36.79-3.62,45.7,19.79,59.06,49.32,14.05-16.68,26.98-51.24,46.4-61.88,5.05-2.76,14.14-3.15,17.76-4.34Z"/>
  <path class="st2" d="M600.67,187.79c-1.43,7.49-15.65,39.78-19.3,41.93-7.06,4.16-34.98-12.09-34.92-19.52.08-9.04,17-29.29,25.94-34.19,6.39-6.78,21.15-9.08,27.09,2.44,1.86,3.61,1.23,4.84,1.18,9.33Z"/>
  <path class="st2" d="M434.66,196.18c14.3.38,34.54,30.59,35.21,42.18.72,12.54-18.7,17.88-27.09,22.74-.26-.56-3.22-10.31-5.08-15-3.35-8.44-8-29.09-8.2-35.23-.44-13.64,1.11-12.13,5.16-14.7Z"/>
  <path class="st0" d="M564.53,317.91c3.49,7.2-39.14,62.63-45.53,72.18-2.65,3.97-21.11,34.56-24.81,30.62-3.49-3.71,14.87-31.89,17.17-35.56,10.54-16.76,28.51-42.2,40.42-57.09,2.55-3.19,6.78-9.31,12.75-10.16Z"/>
  <path class="st0" d="M610.48,389.62c3.4,3.13-41.34,73.36-46.48,80.64-4.32,6.12-13.65,21.27-18.41,18.08-5.88-6.43,44.44-77.28,49.16-83.73s15.73-14.99,15.73-14.99Z"/>
  <path class="st0" d="M653.79,455.89c-4.96,17.24-15.16,33.13-25.95,48.45-5.17,7.35-13.86,20.71-19.22,26.69-8.92,9.94-10.76,2.7-5.26-7.88,3.73-7.18,40.42-60.69,43.5-63.42,2.19-1.94,4.04-3.63,6.93-3.84Z"/>
  <path class="st0" d="M511.75,239.46c-9.31,24.12-20.68,50.11-33.37,72.15-2.47,4.28-5.32,6.1-11.24,11.71,6.94-19.49,16.11-40.82,26.58-58.61,1.72-2.93,14.92-25.7,18.04-25.25Z"/>
</svg>