<?xml version="1.0" encoding="UTF-8"?>
<svg id="uuid-fe4cb7a2-4e7e-419b-bd58-13e72e563024" data-name="Layer 1" xmlns="http://www.w3.org/2000/svg" viewBox="0 0 1080 1080">
  <defs>
    <style>
      .uuid-91ebb4b8-7f67-4339-a669-c7be3c08e2a6 {
        fill: #6ccbff;
      }

      .uuid-22b0d490-2465-489d-9cb7-0a40b3f27ed7 {
        fill: #06602e;
      }
    </style>
  </defs>
  <path class="uuid-91ebb4b8-7f67-4339-a669-c7be3c08e2a6" d="M881.85,581.87c-25.68-8.27-93.74-34.59-97.23-33.4-15.91,7.04-45.9,23.71-65.6,32.94-90.11,42.25-250.12,65.79-347.04,47.44-42.27-8-92.18-24.95-128.17-48.29-12.51,10.67-23.52,15.39-35.12,22.18-22.11,12.93-139.2,94.72-139.2,94.72,10.61,12.9,154.41,90.47,187.13,97.21,214.94,44.31,448.14,16.89,633.06-102.15,14.6-9.4,81.34-68.16,82.88-89.01-30.63-4.15-61.38-12.19-90.71-21.64Z"/>
  <path class="uuid-91ebb4b8-7f67-4339-a669-c7be3c08e2a6" d="M466.04,566.77c54.39-2.92,123.59-14.53,175.43-30.82,40.56-12.75,80.85-30.62,111.07-60.82-21.92-45.33-34.23-83.75-79.15-115.66-152.85-108.55-332.28-46.23-395.37,124.76-3.21,8.71-14.32,27.23-15.88,32.16,65.14,30.46,130.73,54.32,203.91,50.38Z"/>
  <path class="uuid-22b0d490-2465-489d-9cb7-0a40b3f27ed7" d="M719.02,581.42c19.7-9.24,49.69-25.9,65.6-32.94-6.82-20.13-16.11-41.37-24.69-60.56-2.74-6.13-6.87-11.7-7.39-12.79-30.21,30.2-70.5,48.07-111.07,60.82-51.84,16.3-121.04,27.9-175.43,30.82-73.17,3.93-138.77-19.92-203.91-50.38-1,3.18-7.56,16.93-10.19,26.12-4.18,14.63-4.88,21.52-8.14,38.06,35.99,23.35,85.9,40.29,128.17,48.29,96.93,18.35,256.93-5.19,347.04-47.44Z"/>
</svg>