<?xml version="1.0" encoding="UTF-8"?>
<svg id="Layer_1" xmlns="http://www.w3.org/2000/svg" version="1.1" viewBox="0 0 1080 1080">
  <!-- Generator: Adobe Illustrator 30.0.0, SVG Export Plug-In . SVG Version: 2.1.1 Build 123)  -->
  <defs>
    <style>
      .st0 {
        fill: none;
      }

      .st1 {
        fill: #fcabd7;
      }

      .st2 {
        fill: #05602e;
      }
    </style>
  </defs>
  <path class="st0" d="M648.02,419.05s0-.03,0-.05c0,.02,0,.03,0,.05Z"/>
  <path class="st0" d="M648,418.05c.02-2.12.24-4.47.69-7.07-.46,2.69-.69,5.03-.69,7.07Z"/>
  <path class="st2" d="M751.94,801.71c-94.4-17.01-165.98-68.49-208.23-153.85-10.15-20.52-18.15-28.41-3.64-46.99,52.89-67.73,122.18-58.38,146.01-163.67-17.78.3-37.6,1.96-38.05-18.16,0-.02,0-.03,0-.05,0-.31-.02-.62-.02-.95,0-2.04.22-4.38.69-7.07,2.85-16.49,9.17-25.55,24.68-30.94-41.1-16.65-47.38,30.01-63.54,52.39-37.99,52.61-120.16,28.2-81.13-43.02,13.56-24.74,44.45-27.04,70.15-25.36,19.38,1.27,55.52,12.97,70.51-6.61,4.77-6.23,6.81-8.58,7.18-15.52-23.82-4.25-58.21-22.27-34.94-47.64-4.52-2.6-13.44-8.19-22.39-11.68-37.11-14.5-55.98-2-91.93,8.49-2.34-2.13,10.43-17.67,12.78-20.54,7.05-8.6,17.63-20.77,25.24-28.76,19.43-20.39,77.69-57.09,76.15-82.86-.64-10.71-3.8-12.19-6.19-17.11-16.63,14.67-51.35,32.21-57.17,0-42.65,26.6-50.1,39.11-88.93,76.23-2,1.91-15.37,18.1-22.22,25.39,2.49-12.39,21.25-40.71,28.31-50.64,13.37-18.82,45.18-48.6,51.24-64.52,7.02-18.44,2.08-28.15-3.34-34.1-11.04,19.7-42.76,41.72-57.17,12.7-12.87,12.42-25.62,27.79-36.55,44.02l-46,70.31c-.46-15.62,5.2-30.73,10.3-45.23,9.45-26.85,39.62-61.75,31.21-87.42-3.18-9.7-6.95-11.11-9.78-13.44-4.16,8.74-22.4,29.12-30.86,31.34-7.07,1.85-15.52.24-23.13-5.93-65.48,109.04-59.58,316.38-53.96,443.05,11.25,253.5,137.08,413.46,392.66,452.21,27.13,4.11,78.96,6.72,104.21,6.78,12.84.03,29.54.13,42.89-.14l11.45-187.44c-14.33.19-107.29-9.81-126.46-13.27ZM383.32,288.66c-2.9,1.25-7.47,2.66-13.39,2.66-19.95,0-25.92-27.15-15.43-25.44,4.92.8,7.01,14.27,13.55,15.37,8.85,1.49,17.03-6.05,19.6.54,1.08,2.76-1.61,5.7-4.33,6.88ZM431.87,314.18c-2.9,1.25-7.47,2.66-13.39,2.66-19.95,0-25.92-27.15-15.43-25.44,4.92.8,7.01,14.27,13.55,15.37,8.85,1.49,17.03-6.05,19.6.54,1.08,2.76-1.61,5.7-4.33,6.88ZM482.48,339.7c-2.9,1.25-7.47,2.66-13.39,2.66-19.95,0-25.92-27.15-15.43-25.44,4.92.8,7.01,14.27,13.55,15.37,8.85,1.49,17.03-6.05,19.6.54,1.08,2.76-1.61,5.7-4.33,6.88Z"/>
  <path class="st1" d="M648.69,410.98c-.45,2.6-.67,4.95-.69,7.07,0,.33,0,.63.02.95,0,.02,0,.03,0,.05.45,20.12,20.27,18.46,38.05,18.16.26-1.13.84-10.39,1.38-17.13,1.21-15.11.52-34.12-14.08-40.04-15.51,5.39-21.83,14.45-24.68,30.94Z"/>
  <path class="st1" d="M543.15,94.18c-.68-.76-4.25-5.73-8.01-7.64-11.25-5.72-27.78,3.13-39.28,12.24-5.69,4.51-9.08,7.33-9.88,8.1,14.41,29.01,46.13,7,57.17-12.7Z"/>
  <path class="st1" d="M635.25,141.82c-1.04-2.14-2.97-7.24-7.81-10.7-6.37-4.54-21.19-3.6-33.3,2.45-5.19,2.6-15.7,8.02-16.06,8.24,5.82,32.21,40.55,14.67,57.17,0Z"/>
  <path class="st1" d="M404.29,106.46c8.46-2.22,26.7-22.6,30.86-31.34-12.23-10.05-18.39-8.88-28.73-1.61-13.47,9.49-18.18,15.21-25.27,27.02,7.61,6.17,16.07,7.78,23.13,5.93Z"/>
  <path class="st1" d="M676.55,341.92c.02-.37.15-3.48-.33-7.99-1.23-11.44-10.19-20.67-19.09-27.83-7.2-5.8-12.01-9.8-15.52-11.82-23.27,25.37,11.12,43.39,34.94,47.64Z"/>
  <path class="st1" d="M368.05,281.25c-6.55-1.1-8.64-14.57-13.55-15.37-10.49-1.71-4.52,25.44,15.43,25.44,5.92,0,10.49-1.4,13.39-2.66,2.72-1.18,5.41-4.11,4.33-6.88-2.57-6.59-10.74.95-19.6-.54Z"/>
  <path class="st1" d="M416.61,306.76c-6.55-1.1-8.64-14.57-13.55-15.37-10.49-1.71-4.52,25.44,15.43,25.44,5.92,0,10.49-1.4,13.39-2.66,2.72-1.18,5.41-4.11,4.33-6.88-2.57-6.59-10.74.95-19.6-.54Z"/>
  <path class="st1" d="M467.21,332.28c-6.55-1.1-8.64-14.57-13.55-15.37-10.49-1.71-4.52,25.44,15.43,25.44,5.92,0,10.49-1.4,13.39-2.66,2.72-1.18,5.41-4.11,4.33-6.88-2.57-6.59-10.74.95-19.6-.54Z"/>
</svg>