<?xml version="1.0" encoding="UTF-8"?>
<svg id="Layer_1" xmlns="http://www.w3.org/2000/svg" version="1.1" viewBox="0 0 1080 1080">
  <!-- Generator: Adobe Illustrator 30.0.0, SVG Export Plug-In . SVG Version: 2.1.1 Build 123)  -->
  <defs>
    <style>
      .st0 {
        fill: #fe5602;
      }

      .st1 {
        fill: #0c0400;
      }

      .st2 {
        fill: #110600;
      }

      .st3 {
        fill: #070301;
      }

      .st4 {
        fill: #050302;
      }

      .st5 {
        fill: #100600;
      }

      .st6 {
        fill: #0f0500;
      }

      .st7 {
        fill: #0e0500;
      }
    </style>
  </defs>
  <g>
    <path class="st0" d="M516.36,295.13c-4.13,1.48-12.05,12.87-12.06,16.66,0,1.11.11,1.95.55,2.98.39.92,11.98,13.08,13.63,14.56,5.39,4.83,11.86,8.78,19.25,9.38-3.26,7.31-5.32,11.21-14.07,12-28.11,2.51-46.56-19.41-66.72-35.04-15.11-11.72-24.66-11.74-43.31-8.32-13.69,2.52-10.15,3.13-14.54,13.65-5.14,12.31-9,21.93-13.07,34.78-2.75,8.68-6.87,9.13-.76,18.73,5.91,9.28,16.54,19.08,23.86,27.41,22.6,25.71,46.04,50.11,70.08,74.32,16.01,16.13,28.96,33.66,42.28,51.28-4.53,3.18-15.46,10.98-14.39,17.3.35,2.1,7.25,13.49,8.91,15.95,4.23,6.27,10.24,13.93,18.3,14.6-11.03,19.57-38.22-2.19-49.16-11.94-5.83-5.19-10.81-11.49-16.63-16.69-24.69-22.08-49.64-40.35-72.23-65.33-10.45-11.56-19.17-26.7-32.89-34.19.08-2.73-9.23-18.51-11.53-21.37-4.08-5.07-9.57-11.16-16.68-9.38-.94,4.53,3.39,4.39,6.39,6.85,1.81,1.48,4.53,4.18,5.93,6.03,3.44,4.54,7.46,11.84,10.85,14.93,1.42,1.3,2.31,4.87,4.18,4.64.04,5.29,9.41,21.57,11.76,27.97,6.55,17.77,8.5,33.48,1.47,51.47-7.23,18.48-22.74,42.29-42.25,41.29,1.1-8.64,1.46-30.01.71-39.03-1.24-14.77-16.45-66.12-25.66-76.87-.93-1.08-10.87-9.06-11.87-9.49-1.34-.58-2.71-.77-4.13-.36-2.7,5.06,3.66,6.86,6.74,9.71,8.3,7.68,10.27,13.91,14.3,24.15,10.72,27.16,15.26,49.07,15.36,78.36.01,4.26,1.92-2.07,2.43,2.5.21,1.93.33,10.41-.48,14.19-3.55,6.78-4.02,10.97-10.83,16.09-7.51,5.65-29.77,14.79-38.74,12.11-.13-.04-9.36,2.29-11.09,1.96-4.35-.81-17.05-.94-18.7-5.92-1.06-3.19-3.15-5.95-2.37-8.74,1.72-6.15-13.29-3.21-19.28-4.65-1.43-.34-8.07-2.62-8.38-3.77-1.04-3.78,0-7.5,2.26-10.44,3.56-4.63,21.27-3.8,26.39-4.32,9.28-.94,17.46-3.63,29.24-4.94,2.72-.3,1.41-1.82,1.14-2.55-3.28-8.87-5.79-11.89-9.9-19.84-6-11.6-11.11-25.22-17.67-36.16-1.15-1.93-5.28-9.67-8-5.77-2.06,2.97,1.3,5.03,2.35,7.14,9.32,18.63,17.92,37.51,28.88,55.27l-24.35.87c-7.53,1.72-17.29,1.65-24.58,3.62-5.52,1.49-11.97,8.84-11.77,14.7.41,11.72,3.86,18.24,14.81,22.85,5.26,2.21,21.26,4.43,27.52,4.95,6.75.56,15.95-3.32,22.76-2.93-8.51,12.86-16.84,20.36-30.11,28.07-9.71,5.65-19.96,11.02-31.38,11.77-1.71,5.09-5.18,9.65-7.43,14.36-29.13,61.05-64.65,126.29-101.25,183.28-8.46,13.18-17.55,25.95-26.66,38.67l-2.4.18c-15.1-46.35-24.26-94.64-29.91-143.11-1.41-12.11-2.96-24.4-3.22-36.52,28.57-41,51.54-87.57,71.72-133.34,5.2-11.8,9.08-24.2,14.51-35.9,4.43-9.55,10.59-18.47,15.01-27.71,10.6-22.16,16.6-41.18,30.82-62.31,27.83-41.32,60.78-80.67,97.16-114.74,10.76-10.08,23.18-17.9,33.79-27.73,12.82-11.87,26.21-29.21,40.23-39.24,6.69-4.79,30.1-11.18,39.24-13.74,30.68-8.59,46.61-12.36,76.63,1.99,20.84,9.96,34.81,31.8,48.99,48.85ZM349.5,363.27c4.89-4.72-5.45-5.28-8.68-4.84-5.46.74-17.95,7.25-15.78,13.89,1.87,5.72,5.89-2.38,6.72-3.3,5.59-6.26,15.5-3.58,17.74-5.75ZM299.96,391.06c-5.27.57-9.25,1.98-12.6,6.19-1.85,2.33-6.48,10.7-3.5,12.85,4.37,3.17,5.62-5.32,7.04-7.61,4.42-7.14,14.14-5.01,15.71-7.36,3.2-4.78-3.79-4.38-6.64-4.07ZM233.29,454.68c1.68-1.98-.98-7.14,2.06-12.03,4.01-6.45,9.11-4.07,12.31-6.49,2.74-2.07.6-4.93-2.45-4.93-10.62-.03-19.48,11.01-17.48,21.36.55,2.86,3.92,4.02,5.56,2.08Z"/>
    <path class="st1" d="M280.63,602.32c-6.22,2.84-16.02,3.49-22.76,2.93-6.26-.52-22.27-2.73-27.52-4.95-10.95-4.61-14.4-11.13-14.81-22.85-.21-5.86,6.25-13.22,11.77-14.7,7.29-1.96,16.24-3.29,24.58-3.62l24.35-.87c-10.96-17.76-19.56-36.64-28.88-55.27-1.05-2.1-4.42-4.17-2.35-7.14,2.72-3.91,6.84,3.84,8,5.77,6.56,10.94,11.67,24.56,17.67,36.16,4.11,7.95,6.92,10.87,9.9,19.84.64,1.93,2.78,5.36-.5,5.75-9.16,1.11-20.6.79-29.88,1.74-5.12.52-19.36.1-24.32,4.73-2.71,2.54-5.37,6.24-4.33,10.03.32,1.15,8.42,1.3,9.86,1.64,5.99,1.43,17.88,0,19.27,3.44.99,2.45-.15,8.88.91,12.07,1.65,4.98,18.91,3.77,23.67,3.47,1.76-.11,6,.44,6.13.48-.89,1.74-.03.28-.72,1.33Z"/>
    <path class="st4" d="M534.3,575.36c-8.06-.66-14.06-8.33-18.3-14.6-1.66-2.46-8.55-13.85-8.91-15.95-1.07-6.32,9.85-14.12,14.39-17.3.09.11,1.82.15,2.57,1.24,8.99,12.92,18.74,31.54,10.25,46.61Z"/>
    <path class="st3" d="M516.36,295.13c.09.11,1.69.18,2.57,1.24,7.84,9.45,24.41,27.97,20.3,40.89-.35,1.1-1.45,1.32-1.51,1.44-7.39-.6-13.86-4.54-19.25-9.38-1.65-1.48-13.24-13.64-13.63-14.56-.44-1.02-.55-1.87-.55-2.98.01-3.78,7.93-15.17,12.06-16.66Z"/>
    <path class="st7" d="M334.34,567.67c-.33,2.42-2.32,3.03-3.42,5.13-1.03-3.1-1.22-3.8-1.44-5.74-.5-4.57-.5-6.69-.51-10.95-.1-29.29-4.64-51.2-15.36-78.36-4.04-10.23-6.01-16.46-14.3-24.15-3.08-2.85-9.44-4.65-6.74-9.71,1.42-.41,2.79-.21,4.13.36,1,.43,10.94,8.4,11.87,9.49,9.2,10.75,24.42,62.11,25.66,76.87.75,9.02,1.27,28.41.11,37.05Z"/>
    <path class="st5" d="M363.39,447.2c-.01.44-.86,1.3-.85,1.71-1.87.23-3.42-1.88-4.84-3.17-3.39-3.09-6.75-11.87-10.19-16.4-1.4-1.85-4.12-4.55-5.93-6.03-3-2.46-7.33-2.33-6.39-6.85,7.11-1.78,12.6,4.31,16.68,9.38,2.3,2.86,11.61,18.64,11.53,21.37Z"/>
    <path class="st6" d="M233.29,454.68c-1.64,1.94-5.01.78-5.56-2.08-2.01-10.36,6.86-21.39,17.48-21.36,3.06,0,5.2,2.86,2.45,4.93-3.2,2.42-8.3.04-12.31,6.49-3.04,4.89-.38,10.04-2.06,12.03Z"/>
    <path class="st2" d="M299.96,391.06c2.85-.31,9.84-.7,6.64,4.07-1.57,2.35-11.29.22-15.71,7.36-1.42,2.29-2.67,10.78-7.04,7.61-2.98-2.16,1.65-10.53,3.5-12.85,3.35-4.21,7.33-5.61,12.6-6.19Z"/>
    <path class="st6" d="M349.5,363.27c-2.25,2.17-12.16-.51-17.74,5.75-.83.93-4.85,9.02-6.72,3.3-2.17-6.64,10.32-13.16,15.78-13.89,3.24-.44,13.57.13,8.68,4.84Z"/>
  </g>
  <g>
    <path class="st0" d="M616.97,246.28c30.02-14.35,45.95-10.57,76.63-1.99,9.14,2.56,32.55,8.95,39.24,13.74,14.01,10.03,27.41,27.37,40.23,39.24,10.61,9.83,23.03,17.65,33.79,27.73,36.38,34.08,69.33,73.42,97.16,114.74,14.23,21.13,20.22,40.15,30.82,62.31,4.42,9.24,10.59,18.16,15.01,27.71,5.43,11.71,9.31,24.11,14.51,35.9,20.17,45.77,43.15,92.35,71.72,133.34-.26,12.12-1.81,24.42-3.22,36.52-5.65,48.47-14.81,96.77-29.91,143.11l-2.4-.18c-9.11-12.72-18.2-25.5-26.66-38.67-36.6-56.99-72.12-122.23-101.25-183.28-2.25-4.71-5.72-9.27-7.43-14.36-11.42-.75-21.67-6.12-31.38-11.77-13.27-7.72-21.61-15.21-30.11-28.07,6.82-.4,16.02,3.49,22.76,2.93,6.26-.52,22.27-2.73,27.52-4.95,10.95-4.61,14.4-11.13,14.81-22.85.21-5.86-6.25-13.22-11.77-14.7-7.29-1.96-17.06-1.9-24.58-3.62l-24.35-.87c10.96-17.76,19.56-36.64,28.88-55.27,1.05-2.1,4.42-4.17,2.35-7.14-2.72-3.91-6.84,3.84-8,5.77-6.56,10.94-11.67,24.56-17.67,36.16-4.11,7.95-6.62,10.97-9.9,19.84-.27.74-1.58,2.25,1.14,2.55,11.78,1.31,19.96,3.99,29.24,4.94,5.12.52,22.84-.32,26.39,4.32,2.26,2.95,3.3,6.66,2.26,10.44-.32,1.15-6.95,3.43-8.38,3.77-5.99,1.43-21-1.5-19.28,4.65.78,2.79-1.31,5.55-2.37,8.74-1.65,4.98-14.36,5.11-18.7,5.92-1.73.32-10.96-2-11.09-1.96-8.96,2.68-31.22-6.46-38.74-12.11-6.81-5.12-7.28-9.3-10.83-16.09-.81-3.78-.69-12.26-.48-14.19.5-4.57,2.41,1.76,2.43-2.5.1-29.29,4.64-51.2,15.36-78.36,4.04-10.23,6.01-16.46,14.3-24.15,3.08-2.85,9.44-4.65,6.74-9.71-1.42-.41-2.79-.21-4.13.36-1,.43-10.94,8.4-11.87,9.49-9.2,10.75-24.42,62.11-25.66,76.87-.75,9.02-.4,30.39.71,39.03-19.51.99-35.02-22.81-42.25-41.29-7.04-18-5.08-33.7,1.47-51.47,2.36-6.4,11.72-22.68,11.76-27.97,1.87.23,2.75-3.35,4.18-4.64,3.39-3.09,7.41-10.4,10.85-14.93,1.4-1.85,4.12-4.55,5.93-6.03,3-2.46,7.33-2.33,6.39-6.85-7.11-1.78-12.6,4.31-16.68,9.38-2.3,2.86-11.61,18.64-11.53,21.37-13.72,7.49-22.43,22.63-32.89,34.19-22.6,24.99-47.54,43.25-72.23,65.33-5.82,5.21-10.8,11.5-16.63,16.69-10.94,9.74-38.13,31.5-49.16,11.94,8.06-.66,14.06-8.33,18.3-14.6,1.66-2.46,8.55-13.85,8.91-15.95,1.07-6.32-9.85-14.12-14.39-17.3,13.31-17.62,26.26-35.16,42.28-51.28,24.04-24.21,47.48-48.61,70.08-74.32,7.32-8.32,17.95-18.12,23.86-27.41,6.11-9.61,1.99-10.05-.76-18.73-4.07-12.84-7.93-22.47-13.07-34.78-4.4-10.52-.85-11.14-14.54-13.65-18.65-3.43-28.19-3.4-43.31,8.32-20.15,15.63-38.61,37.55-66.72,35.04-8.75-.78-10.81-4.69-14.07-12,7.39-.6,13.86-4.54,19.25-9.38,1.65-1.48,13.24-13.64,13.63-14.56.44-1.02.55-1.87.55-2.98-.01-3.78-7.93-15.17-12.06-16.66,14.18-17.04,28.15-38.89,48.99-48.85ZM752.58,369.01c.83.93,4.85,9.02,6.72,3.3,2.17-6.64-10.32-13.16-15.78-13.89-3.24-.44-13.57.13-8.68,4.84,2.25,2.17,12.16-.51,17.74,5.75ZM777.73,395.13c1.57,2.35,11.29.22,15.71,7.36,1.42,2.29,2.67,10.78,7.04,7.61,2.98-2.16-1.65-10.53-3.5-12.85-3.35-4.21-7.33-5.61-12.6-6.19-2.85-.31-9.84-.7-6.64,4.07ZM856.61,452.59c2.01-10.36-6.86-21.39-17.48-21.36-3.06,0-5.2,2.86-2.45,4.93,3.2,2.42,8.3.04,12.31,6.49,3.04,4.89.38,10.04,2.06,12.03,1.64,1.94,5.01.78,5.56-2.08Z"/>
    <path class="st1" d="M803.71,602.32c6.22,2.84,16.02,3.49,22.76,2.93,6.26-.52,22.27-2.73,27.52-4.95,10.95-4.61,14.4-11.13,14.81-22.85.21-5.86-6.25-13.22-11.77-14.7-7.29-1.96-16.24-3.29-24.58-3.62l-24.35-.87c10.96-17.76,19.56-36.64,28.88-55.27,1.05-2.1,4.42-4.17,2.35-7.14-2.72-3.91-6.84,3.84-8,5.77-6.56,10.94-11.67,24.56-17.67,36.16-4.11,7.95-6.92,10.87-9.9,19.84-.64,1.93-2.78,5.36.5,5.75,9.16,1.11,20.6.79,29.88,1.74,5.12.52,19.36.1,24.32,4.73,2.71,2.54,5.37,6.24,4.33,10.03-.32,1.15-8.42,1.3-9.86,1.64-5.99,1.43-17.88,0-19.27,3.44-.99,2.45.15,8.88-.91,12.07-1.65,4.98-18.91,3.77-23.67,3.47-1.76-.11-6,.44-6.13.48.89,1.74.03.28.72,1.33Z"/>
    <path class="st4" d="M550.04,575.36c8.06-.66,14.06-8.33,18.3-14.6,1.66-2.46,8.55-13.85,8.91-15.95,1.07-6.32-9.85-14.12-14.39-17.3-.09.11-1.82.15-2.57,1.24-8.99,12.92-18.74,31.54-10.25,46.61Z"/>
    <path class="st3" d="M567.98,295.13c-.09.11-1.69.18-2.57,1.24-7.84,9.45-24.41,27.97-20.3,40.89.35,1.1,1.45,1.32,1.51,1.44,7.39-.6,13.86-4.54,19.25-9.38,1.65-1.48,13.24-13.64,13.63-14.56.44-1.02.55-1.87.55-2.98-.01-3.78-7.93-15.17-12.06-16.66Z"/>
    <path class="st7" d="M750,567.67c.33,2.42,2.32,3.03,3.42,5.13,1.03-3.1,1.22-3.8,1.44-5.74.5-4.57.5-6.69.51-10.95.1-29.29,4.64-51.2,15.36-78.36,4.04-10.23,6.01-16.46,14.3-24.15,3.08-2.85,9.44-4.65,6.74-9.71-1.42-.41-2.79-.21-4.13.36-1,.43-10.94,8.4-11.87,9.49-9.2,10.75-24.42,62.11-25.66,76.87-.75,9.02-1.27,28.41-.11,37.05Z"/>
    <path class="st5" d="M720.95,447.2c.01.44.86,1.3.85,1.71,1.87.23,3.42-1.88,4.84-3.17,3.39-3.09,6.75-11.87,10.19-16.4,1.4-1.85,4.12-4.55,5.93-6.03,3-2.46,7.33-2.33,6.39-6.85-7.11-1.78-12.6,4.31-16.68,9.38-2.3,2.86-11.61,18.64-11.53,21.37Z"/>
    <path class="st6" d="M851.05,454.68c1.64,1.94,5.01.78,5.56-2.08,2.01-10.36-6.86-21.39-17.48-21.36-3.06,0-5.2,2.86-2.45,4.93,3.2,2.42,8.3.04,12.31,6.49,3.04,4.89.38,10.04,2.06,12.03Z"/>
    <path class="st2" d="M784.38,391.06c-2.85-.31-9.84-.7-6.64,4.07,1.57,2.35,11.29.22,15.71,7.36,1.42,2.29,2.67,10.78,7.04,7.61,2.98-2.16-1.65-10.53-3.5-12.85-3.35-4.21-7.33-5.61-12.6-6.19Z"/>
    <path class="st6" d="M734.84,363.27c2.25,2.17,12.16-.51,17.74,5.75.83.93,4.85,9.02,6.72,3.3,2.17-6.64-10.32-13.16-15.78-13.89-3.24-.44-13.57.13-8.68,4.84Z"/>
  </g>
</svg>