<?xml version="1.0" encoding="UTF-8"?>
<svg id="uuid-5b3f72ce-0ae7-446f-8144-522215d7f41c" data-name="Layer 1" xmlns="http://www.w3.org/2000/svg" viewBox="0 0 1080 1080">
  <defs>
    <style>
      .uuid-a097dced-ef27-4f88-84ce-c07a1285225c {
        fill: none;
      }

      .uuid-cbcbf98f-ef91-4502-b534-33356eba1ec7 {
        fill: #faf9f8;
      }

      .uuid-49fc1ee6-22cb-44de-9f04-9cf8903f2d61 {
        fill: #fd5704;
      }

      .uuid-28b39c49-a414-4a47-8175-f37c8f25eb08 {
        fill: #020201;
      }
    </style>
  </defs>
  <path class="uuid-a097dced-ef27-4f88-84ce-c07a1285225c" d="M403.59,379.21h69.94c3.08,0,2.02-9.56,2.91-13.94,6.13-30.08,5.08-69.26,8.03-100.41-33.13.99-51.11-1.14-86.73,7.89-2.49,28.03-5.17,64.93-5.78,94.65-.13,6.52,5.12,11.82,11.64,11.82Z"/>
  <path class="uuid-49fc1ee6-22cb-44de-9f04-9cf8903f2d61" d="M819.21,290.84c-113.69-80.41-243.46-110.55-382.94-95.89C226.48,217.01,18.39,461.15,134.35,668.28c67.97,121.4,255.75,161.35,383.66,172.26,167.48,14.29,366.73-43.22,414.73-223.93,33.12-124.69-8.7-251.64-113.53-325.77ZM799.86,667.07c-27.18,23.29-43.72,34.67-74.91,51.26-3.31,1.76-6.81,8.13-15.77,11.83-25.18,10.4-52.53,13.69-78.85,19.72-56.19,12.87-86.38,12.79-145.87,3.94-29.79-4.43-61.06-13.11-90.67-19.72-115.17-25.68-230.3-84.57-216.35-222.32,7.32-72.25,49.89-120.3,99.94-168.18,5.34-5.1,10.83-9.27,17.85-11.72,9.22-22.23,61.39-43.42,82.79-51.26,6.84-2.51,11.57-5.82,19.71-7.89,35.63-9.03,53.61-6.9,86.73-7.89,28.55-.85,46.08-1.39,74.91,0,37.35,1.8,50.97,4.08,86.73,11.83,7.42,1.61,16.61,1.97,23.66,3.94,40.88,11.46,49.58,16.17,82.79,39.43,67.53,47.31,107.34,110.91,113.82,195.7,6.39,83.49-7.54,100.76-66.51,151.31Z"/>
  <path class="uuid-28b39c49-a414-4a47-8175-f37c8f25eb08" d="M752.55,320.06c-.61,20.36-3.01,48.35-17.74,63.09h-67.02l-5.27-6.53,7.24-96c-7.04-1.97-16.24-2.34-23.66-3.94-8.45,20.84-7.86,84.69-21.58,98.69-7.11,7.26-60.44,5.38-69.14-2.04-12.38-10.55,2.74-89.04,3.98-108.48-28.82-1.39-46.35-.85-74.91,0-2.95,31.15-1.9,70.34-8.03,100.41-.89,4.38.17,13.94-2.91,13.94h-69.94c-6.52,0-11.77-5.31-11.64-11.82.61-29.71,3.29-66.61,5.78-94.65-8.14,2.06-12.88,5.38-19.71,7.89,1.89,16.43-6.45,90.14-19.65,96.66-36.12,3.83-83.97,4.84-63.14-45.39-7.02,2.46-12.51,6.62-17.85,11.72-50.05,47.87-92.62,95.92-99.94,168.18-13.95,137.75,101.18,196.64,216.35,222.32-.9-25.14-14.64-72.63,21.92-78.64,88.53-14.53,67.03,33.43,68.76,98.35,59.48,8.85,89.68,8.93,145.87-3.94-2.3-23.48-10.66-90.56,18.6-97.73,10.21-2.5,50.44-6.96,56.66,1.68,8.84,12.28.87,59.11,3.59,76.33,8.96-3.7,12.46-10.07,15.77-11.83-4.36-15.12-8.91-74.9,1.61-83.18,2.78-2.19,38.44-10.69,44.26-11.22,33.16-3,29.55,16.65,29.03,43.13,58.97-50.55,72.9-67.82,66.51-151.31-6.49-84.79-46.3-148.39-113.82-195.7Z"/>
  <path class="uuid-cbcbf98f-ef91-4502-b534-33356eba1ec7" d="M555.39,373.33c8.7,7.41,62.03,9.29,69.14,2.04,13.72-14,13.13-77.85,21.58-98.69-35.76-7.75-49.38-10.03-86.73-11.83-1.24,19.44-16.37,97.93-3.98,108.48Z"/>
  <path class="uuid-cbcbf98f-ef91-4502-b534-33356eba1ec7" d="M415.71,655.47c-36.56,6-22.82,53.5-21.92,78.64,29.62,6.6,60.89,15.29,90.67,19.72-1.73-64.92,19.78-112.89-68.76-98.35Z"/>
  <path class="uuid-cbcbf98f-ef91-4502-b534-33356eba1ec7" d="M667.79,383.15h67.02c14.73-14.74,17.13-42.74,17.74-63.09-33.2-23.27-41.91-27.98-82.79-39.43l-7.24,96,5.27,6.53Z"/>
  <path class="uuid-cbcbf98f-ef91-4502-b534-33356eba1ec7" d="M705.59,653.83c-6.22-8.64-46.45-4.19-56.66-1.68-29.25,7.17-20.9,74.25-18.6,97.73,26.31-6.03,53.67-9.32,78.85-19.72-2.72-17.22,5.24-64.05-3.59-76.33Z"/>
  <path class="uuid-cbcbf98f-ef91-4502-b534-33356eba1ec7" d="M358.37,377.28c13.2-6.52,21.54-80.23,19.65-96.66-21.4,7.84-73.57,29.03-82.79,51.26-20.83,50.23,27.02,49.22,63.14,45.39Z"/>
  <path class="uuid-cbcbf98f-ef91-4502-b534-33356eba1ec7" d="M770.83,623.94c-5.83.53-41.48,9.03-44.26,11.22-10.52,8.28-5.97,68.05-1.61,83.18,31.18-16.59,47.73-27.97,74.91-51.26.51-26.48,4.12-46.14-29.03-43.13Z"/>
</svg>