<?xml version="1.0" encoding="UTF-8"?>
<svg id="uuid-659a1ad4-cb35-42cb-acfe-c04d73180209" data-name="Layer 1" xmlns="http://www.w3.org/2000/svg" viewBox="0 0 1080 1080">
  <defs>
    <style>
      .uuid-92fcd853-cbae-4154-a283-5e708fa50ce4 {
        fill: none;
      }

      .uuid-3bfe5ab3-54fc-4537-8450-7714604065a2 {
        fill: #faf9f8;
      }

      .uuid-b4092209-eabc-4384-98cb-146ca0e90209 {
        fill: #060303;
      }

      .uuid-d9f76e46-2d80-40c1-9231-48694513488c {
        fill: #ffadda;
      }

      .uuid-0cdc2c3e-226b-45b3-af69-0d008c7fc5e7 {
        fill: #fd5704;
      }
    </style>
  </defs>
  <path class="uuid-92fcd853-cbae-4154-a283-5e708fa50ce4" d="M252.05,448.36c8.52,6.62,16.61,13.4,25.26,20.18-8.64-6.77-16.69-13.53-25.26-20.18Z"/>
  <path class="uuid-92fcd853-cbae-4154-a283-5e708fa50ce4" d="M223.82,428.93c-18.02-10.65-31.06-15.05-49.55-5.17,18.27-9.44,30.27-2.97,49.55,5.17Z"/>
  <path class="uuid-d9f76e46-2d80-40c1-9231-48694513488c" d="M851.6,360.88c-87.86.32-211.36,111.02-313.5,118.19-46.14,3.24-149.63-24.6-191.34-46.48-45.43-23.82-79.17-61.21-134.28-65.79-99.07-8.23-141.39,91.23-100.75,172.68,79.96,160.28,329.04,196.27,487.88,173.08,122.49-17.88,360.45-92.83,358.83-247.66-.56-53.1-54.2-104.21-106.83-104.02ZM887.16,512.4c-29.38,49.78-124.08,101.78-178.79,119.78-124.01,40.79-270.22,20.21-393.89-12.51-61-16.14-123.37-52.92-152.72-111.46-13.77-27.45-24.18-60.47,6.01-80.63,2.27-1.51,4.41-2.75,6.5-3.82,18.5-9.88,31.54-5.48,49.55,5.17,10.53,6.19,19.6,12.72,28.23,19.43,8.56,6.64,16.62,13.41,25.26,20.18,5.79,4.54,11.83,9.07,18.41,13.55,2.7,1.84,18.12,10.49,21.88,12.51,28.31,15.21,65.32,28.52,96.91,34.4,9.85,1.83,26.56,2.14,37.51,3.13,37.39,3.37,74.89,5.25,112.54,0,5.68-.79,13.18-2,18.76-3.13,38.49-7.78,74.22-24.42,109.41-40.65,3.69-1.7,8.1-4.17,12.5-6.25,38.12-18.01,75.61-41.98,115.67-53.16,1.44-.4,4.82-2.6,11.66-3.65,66.45-10.21,86.72,32.7,54.6,87.12Z"/>
  <path class="uuid-b4092209-eabc-4384-98cb-146ca0e90209" d="M832.56,425.27c-6.84,1.05-10.21,3.25-11.66,3.65,9.18,50.42-21.85,103.6-78.07,82.78-19.06-7.06-24.49-16.55-37.6-29.62-4.41,2.08-8.82,4.55-12.5,6.25-1.54,36.92-7.72,81.38-54.71,81.28-31.44-.07-39.08-18.76-54.7-40.64-5.57,1.13-13.07,2.33-18.76,3.13-11.68,56.82-111.23,65.92-112.54,0-10.95-.99-27.66-1.29-37.51-3.13-21.62,54.13-119.48,22.66-96.91-34.4-3.76-2.02-19.18-10.67-21.88-12.51-39.13,39.63-100.77,1.44-71.9-53.16-19.28-8.13-31.28-14.61-49.55-5.17-2.08,1.08-4.23,2.31-6.5,3.82-30.2,20.16-19.78,53.17-6.01,80.63,29.36,58.53,91.72,95.32,152.72,111.46,23.85-6.07,45.73-18.89,70.72-21.5,36.98-3.86,77.39,1.04,111.4,16,7.73,3.4,26.82,17.91,28.79,17.95,3.16.07,42.27-17.65,54.77-20.3,38.3-8.11,99.48-10.79,128.2,20.36,54.72-18,149.42-70,178.79-119.78,32.12-54.43,11.85-97.34-54.6-87.12Z"/>
  <path class="uuid-0cdc2c3e-226b-45b3-af69-0d008c7fc5e7" d="M580.16,611.81c-12.5,2.65-51.61,20.37-54.77,20.3-1.97-.04-21.06-14.55-28.79-17.95-34.01-14.96-74.43-19.87-111.4-16-24.99,2.61-46.88,15.43-70.72,21.5,123.67,32.71,269.88,53.3,393.89,12.51-28.73-31.15-89.91-28.47-128.2-20.36Z"/>
  <path class="uuid-3bfe5ab3-54fc-4537-8450-7714604065a2" d="M742.84,511.71c56.22,20.82,87.25-32.36,78.07-82.78-40.05,11.18-77.55,35.14-115.67,53.16,13.11,13.07,18.54,22.56,37.6,29.62Z"/>
  <path class="uuid-3bfe5ab3-54fc-4537-8450-7714604065a2" d="M638.02,569.62c47,.1,53.17-44.36,54.71-81.28-35.19,16.23-70.92,32.87-109.41,40.65,15.62,21.87,23.26,40.57,54.7,40.64Z"/>
  <path class="uuid-3bfe5ab3-54fc-4537-8450-7714604065a2" d="M564.56,532.11c-37.65,5.25-75.15,3.37-112.54,0,1.31,65.92,100.86,56.82,112.54,0Z"/>
  <path class="uuid-3bfe5ab3-54fc-4537-8450-7714604065a2" d="M414.51,528.99c-31.59-5.87-68.59-19.19-96.91-34.4-22.57,57.05,75.29,88.52,96.91,34.4Z"/>
  <path class="uuid-3bfe5ab3-54fc-4537-8450-7714604065a2" d="M295.72,482.09c-6.58-4.48-12.62-9.01-18.41-13.55-8.65-6.78-16.74-13.56-25.26-20.18-8.63-6.71-17.7-13.24-28.23-19.43-28.87,54.59,32.77,92.79,71.9,53.16Z"/>
</svg>