<?xml version="1.0" encoding="UTF-8"?>
<svg id="uuid-71bd2972-5bf2-4872-b8f4-111e9f9b9faf" data-name="Layer 1" xmlns="http://www.w3.org/2000/svg" viewBox="0 0 1080 1080">
  <defs>
    <style>
      .uuid-b4b6aec9-03ce-4db2-8594-a6e8c7754d0f {
        fill: none;
      }

      .uuid-74e164c6-b103-4cd2-aa28-16305d78e936 {
        fill: #f8acd6;
      }

      .uuid-2fbfc985-dcb9-4ddc-844e-4e073736a56d {
        fill: #0a6130;
      }

      .uuid-06b45ed6-8add-4cd2-a453-6b46412c96dd {
        fill: #fdadd9;
      }
    </style>
  </defs>
  <path class="uuid-b4b6aec9-03ce-4db2-8594-a6e8c7754d0f" d="M535.56,560.34c-1.71.96-3.57,1.96-5.38,2.94,1.87-1.01,3.68-1.99,5.38-2.94Z"/>
  <path class="uuid-06b45ed6-8add-4cd2-a453-6b46412c96dd" d="M667.29,656.26c-123.3,74.73-253.24,129.51-386.69,183.59-10.48,24.54-18.46,41.17-27.55,68.25,40.3,9.98,81.38,11,122.55,12.52,109.67-51.33,223.86-98.18,318.26-175.8-8.86-28.99-16.56-57.42-26.58-88.56Z"/>
  <path class="uuid-2fbfc985-dcb9-4ddc-844e-4e073736a56d" d="M585.67,326.91l27.12-18.3c-3.75-8.6-19.96-22.53-37.66-43.62,15.44-3.01,71.39,31.13,71.39,31.13,4.83-3.09,15.36-31.21,14.03-35.79l-75.88-19.08c41-20.44,61.59-39.32,92.58-62.5-5.39-4.31-21.29-19.4-21.29-19.4-7.72,3.76-89.7,66.3-95.03,67.59-2.16-18.19,3.61-80.01,9.72-97.7l-38.29-2.1-4.77,90.3c-20.58-18.12-29.57-42.32-47.88-61.98-5.35-5.74-16.09-14.55-23.29-16.7l-23.79,28.63,66.5,54.76-104.53-9.48.03,52.31c7.39-1.11,66.98-12.51,79-13.68,5.28-.52,8.68.58,15.96,4.1-15.02,3.11-75,44.04-85.14,54.08l29.72,26.08c33.88-23.3,97.56-65.84,97.56-65.84.95-.39.52,0,.52,0,29.53,16.31,46.32,41.28,53.42,57.21Z"/>
  <path class="uuid-74e164c6-b103-4cd2-aa28-16305d78e936" d="M632.12,545.27c-90.22,61.97-192.52,102.55-289.76,152.04-12.72,30.06-24.92,60.34-38,90.27,123.03-47.93,237.59-104.63,352.61-169.01-7.41-22.88-16.84-49.3-24.85-73.31Z"/>
  <path class="uuid-74e164c6-b103-4cd2-aa28-16305d78e936" d="M535.56,560.34c28.16-15.8,54.92-36,82.32-53.08-8.32-24.34-14.72-50.07-23.75-76.02l-171.01,90.28c-18.07,38.76-34.64,78.86-52.25,118.78,6.34-7.16,110.95-50.99,159.32-77.01,1.81-.99,3.66-1.98,5.38-2.94Z"/>
  <path class="uuid-2fbfc985-dcb9-4ddc-844e-4e073736a56d" d="M656.97,618.58c-115.03,64.37-229.58,121.07-352.61,169.01-7.51,17.18-16.34,34.93-23.75,52.26,133.44-54.08,263.38-108.86,386.69-183.59-3.39-10.54-5.93-24.14-10.32-37.68Z"/>
  <path class="uuid-06b45ed6-8add-4cd2-a453-6b46412c96dd" d="M708.13,787.59l-232.76,133.04c30.33-.81,62.7,2.14,92.58-.05,59.44-4.36,125.93-9.75,178.09-26.33.17-5.6-33.34-91.65-37.91-106.66Z"/>
  <path class="uuid-2fbfc985-dcb9-4ddc-844e-4e073736a56d" d="M693.88,744.83c-94.4,77.62-208.6,124.47-318.26,175.8,37.44,1.38,62.34,1,99.75,0l232.76-133.04c-4.32-14.2-10.58-30.74-14.25-42.76Z"/>
  <path class="uuid-2fbfc985-dcb9-4ddc-844e-4e073736a56d" d="M617.87,507.26c-27.4,17.08-54.15,37.28-82.32,53.08-1.69.95-3.51,1.94-5.38,2.94-48.37,26.03-152.98,69.85-159.32,77.01,0,0-20.91,39.07-28.5,57.02,97.24-49.5,199.54-90.07,289.76-152.04-4.33-12.98-9.96-25.46-14.25-38.01Z"/>
  <path class="uuid-06b45ed6-8add-4cd2-a453-6b46412c96dd" d="M541.87,288.7c-3.19-6.18-5.63-12.34-9.62-19.01-1.47,1.9-5.49,10.25-6.35,12.22-26.97,64.77-50.28,123.34-79.03,187.33l137.76-76.02c-11.64-32.25-27.27-74.53-42.75-104.53Z"/>
  <path class="uuid-2fbfc985-dcb9-4ddc-844e-4e073736a56d" d="M584.62,393.23l-137.76,76.02c-7.74,17.23-15.77,35.15-23.75,52.26l171.01-90.28c-2.93-11.74-6.51-23.11-9.5-38.01Z"/>
</svg>