<?xml version="1.0" encoding="UTF-8"?>
<svg id="uuid-65f111bf-8baf-4223-a566-8a493e05cb6d" data-name="Layer 1" xmlns="http://www.w3.org/2000/svg" viewBox="0 0 1080 1080">
  <defs>
    <style>
      .uuid-90a400cd-40c6-4664-9e37-79d55cca607d {
        fill: none;
      }

      .uuid-4e114ce2-c73e-4eb5-b9c0-9a52800950e8 {
        fill: #0e60e2;
      }

      .uuid-e3d45457-0866-41f9-9b38-203562411eab {
        fill: #6dcbfd;
      }
    </style>
  </defs>
  <path class="uuid-90a400cd-40c6-4664-9e37-79d55cca607d" d="M540.06,312.61c1.71,1.84,3.65,3.45,5.75,4.81-2.12-1.39-4.06-2.99-5.75-4.81Z"/>
  <path class="uuid-e3d45457-0866-41f9-9b38-203562411eab" d="M247.51,852.98c-3.87,7.92-26.92,51.03-26.92,51.03,25.62,9.69,45.13,12.57,65.6,15.65,114.54,17.28,360.86,16.91,472.68-7.1-157.28-29.52-321.16-67.22-457.79-153.68-15.57,30.42-37.79,61.81-53.58,94.09Z"/>
  <path class="uuid-e3d45457-0866-41f9-9b38-203562411eab" d="M778.33,850.33c-9.13-31.6-18.28-63.49-27.04-95.19-130.28-23.27-253.89-74.04-372.19-131.33-14.02,26.92-31.3,52.66-45.3,79.87,41.54,15.09,77.4,43,118,60.37,103.89,44.46,216.4,63.89,326.52,86.29Z"/>
  <path class="uuid-4e114ce2-c73e-4eb5-b9c0-9a52800950e8" d="M778.33,850.33c-110.12-22.4-222.64-41.83-326.52-86.29-40.59-17.37-76.46-45.28-118-60.37-9.86,17.62-23.54,39.26-32.72,55.21,136.63,86.46,300.51,124.15,457.79,153.68,8.85-1.9,24.18-4.52,34.3-7.26-3.03-9.77-11.7-44.05-14.85-54.98Z"/>
  <path class="uuid-4e114ce2-c73e-4eb5-b9c0-9a52800950e8" d="M594.02,311.82c7.04-10.89,6.73-18.73,6.73-18.73,2.45,2.02,40.79,17.97,56.68-10.8,18.05-32.68-19.73-45.42-18.28-47.88,77.38-26.21,43.47-130.26-28.67-73.29-8.44-68.3-88.04-49.32-84.42,13.17-29-20.33-82.23,5.33-71.04,39.72,4.97,15.26,32.52,16.2,32.52,16.2-41.04,44.81-5.7,76.13,44.57,57.25-.84,8.15,2.54,19.3,7.94,25.13,1.69,1.82,3.63,3.42,5.75,4.81,14.67,9.52,37.46,7.47,48.21-5.6Z"/>
  <path class="uuid-e3d45457-0866-41f9-9b38-203562411eab" d="M696.85,569.64c-85.65-15.84-171.78-35.6-241.08-90.64-15.62,29.72-32.3,58.52-47.84,88.19,103.69,49.76,210.74,95.09,324.21,117.87-11.16-39.14-23.51-77.41-35.29-115.42Z"/>
  <path class="uuid-4e114ce2-c73e-4eb5-b9c0-9a52800950e8" d="M732.14,685.06c-113.48-22.77-220.52-68.1-324.21-117.87-9.84,18.78-19.07,37.88-28.82,56.62,118.3,57.29,241.9,108.06,372.19,131.33-6.46-23.38-12.49-46.72-19.15-70.08Z"/>
  <path class="uuid-e3d45457-0866-41f9-9b38-203562411eab" d="M594.02,311.82c-10.75,13.07-33.54,15.12-48.21,5.6-2.1-1.37-4.04-2.97-5.75-4.81l-52.4,108.73c52.85,46.67,113.95,64.04,181.57,78.22-29.66-69.86-50.58-124.08-75.2-187.73Z"/>
  <path class="uuid-4e114ce2-c73e-4eb5-b9c0-9a52800950e8" d="M669.23,499.56c-67.62-14.18-128.71-31.55-181.57-78.22-10.45,17.42-21.87,39.94-31.89,57.66,69.3,55.04,155.43,74.79,241.08,90.64-9.39-25.06-19.4-45.77-27.62-70.08Z"/>
</svg>