<?xml version="1.0" encoding="UTF-8"?>
<svg id="uuid-507132af-1f79-41d2-93eb-563fa4104364" data-name="Layer 1" xmlns="http://www.w3.org/2000/svg" viewBox="0 0 1080 1080">
  <defs>
    <style>
      .uuid-35970a1b-039a-4e36-b41e-379f033280ec {
        fill: none;
      }

      .uuid-0b35af81-f3e6-4aba-a079-a27b2e3643ee {
        fill: #f8acd6;
      }

      .uuid-e6f636b3-6e5e-4147-b6bc-62bf1477dda7 {
        fill: #ffadda;
      }

      .uuid-c1121556-6aa3-4f54-a519-b0e4dfed9016 {
        fill: #fd5704;
      }
    </style>
  </defs>
  <path class="uuid-35970a1b-039a-4e36-b41e-379f033280ec" d="M371.47,606.34c5.98,2.07,11.64,3.25,16.92,3.68-5.35-.45-11.01-1.63-16.92-3.68Z"/>
  <path class="uuid-35970a1b-039a-4e36-b41e-379f033280ec" d="M473.07,321.78s.06,0,.09,0c-.01,0-.03,0-.04,0-.02,0-.04,0-.06,0Z"/>
  <path class="uuid-35970a1b-039a-4e36-b41e-379f033280ec" d="M469.83,322.18c-.1.02-.18.03-.28.06.08-.03.2-.03.28-.06Z"/>
  <path class="uuid-c1121556-6aa3-4f54-a519-b0e4dfed9016" d="M672.46,791.99c-28.99,20.93-72.19,9.7-64.27-31.35,3.25-16.83,18.54-39.13,39.19-33.88-27.66-73.89-48.49-147.46-80.27-220.78-59.01,24.55-87.23-42.67-35.12-70.25-19.02-37.88-39.96-76.42-57.57-113.71-.42-.08-.84-.17-1.27-.25-.03,0-.06,0-.09,0-1.03-.02-2.13.14-3.24.4-.08.03-.2.03-.28.06-.08.02-.15.05-.22.07-18.44,62.1-43.88,124.81-64.23,184.86-2.98,8.79-5.49,16.65-7.23,21.85,65.45,20.14,42.64,85.38-9.48,80.99-5.29-.43-10.94-1.61-16.92-3.68-24.83,77.2-42.35,153.71-65.21,230.81,88.7-17.14,46.83,121.08-15.05,55.19-2.92,8.48-9.03,29.9-13.57,50.11,59.15,13.96,106.84,13.04,184.73,8.2,56.14-3.49,105.36-6.83,158.69-19.87,11.41-2.79,88.21-24.65,96.47-30.55-17.36-38.08-30.96-72.55-45.08-108.24ZM427.99,776.04c-47.8,9.96-53.91-63.22-17.77-73.53,54.79-15.63,63.24,64.05,17.77,73.53ZM509.26,882.71c-47.41,1.78-36.48-62.42-3.72-69.66,64.92-14.34,55.82,67.7,3.72,69.66ZM513.14,670.38c-21.54-31.75,17.22-79.06,49.39-51.91,32.91,27.78-12.2,78.78-49.39,51.91Z"/>
  <path class="uuid-0b35af81-f3e6-4aba-a079-a27b2e3643ee" d="M306.25,837.15c-5.11,17.23-9.53,39.19-15.05,55.19,61.88,65.89,103.75-72.33,15.05-55.19Z"/>
  <path class="uuid-0b35af81-f3e6-4aba-a079-a27b2e3643ee" d="M608.19,760.65c-7.93,41.05,35.27,52.28,64.27,31.35-8.46-21.39-17.03-43.71-25.08-65.23-20.64-5.25-35.93,17.05-39.19,33.88Z"/>
  <path class="uuid-0b35af81-f3e6-4aba-a079-a27b2e3643ee" d="M397.87,529.03c-7.55,22.48-18.22,51.9-26.4,77.32,5.91,2.05,11.57,3.23,16.92,3.68,52.11,4.39,74.92-60.86,9.48-80.99Z"/>
  <path class="uuid-0b35af81-f3e6-4aba-a079-a27b2e3643ee" d="M567.11,505.99c-10.23-23.6-23.52-47.17-35.12-70.25-52.12,27.58-23.9,94.8,35.12,70.25Z"/>
  <path class="uuid-e6f636b3-6e5e-4147-b6bc-62bf1477dda7" d="M469.83,322.18c1.1-.26,2.21-.42,3.24-.4.02,0,.04,0,.06,0,.01,0,.03,0,.04,0,.42.08.84.17,1.27.25,38.4,7.11,76.68,17.84,110.3,38.34l-57.65-102.39,85.19-63.03-120.05,14.63c-4.09-3.48-21.69-84.14-25.37-94.95l-34.97,98.04-95.52-2.67c25.34,28.94,51.65,59.24,85.58,78.06l-55.46,102.5c8.51-3.46,83.74-59.71,95.29-65.2.88-.42,4.16-2.15,7.56-3.04.08-.02.15-.05.22-.07.09-.02.18-.04.28-.06Z"/>
  <path class="uuid-0b35af81-f3e6-4aba-a079-a27b2e3643ee" d="M410.23,702.51c-36.14,10.31-30.03,83.49,17.77,73.53,45.48-9.48,37.02-89.16-17.77-73.53Z"/>
  <path class="uuid-0b35af81-f3e6-4aba-a079-a27b2e3643ee" d="M505.54,813.06c-32.76,7.23-43.69,71.44,3.72,69.66,52.1-1.96,61.2-83.99-3.72-69.66Z"/>
  <path class="uuid-0b35af81-f3e6-4aba-a079-a27b2e3643ee" d="M513.14,670.38c37.19,26.86,82.31-24.14,49.39-51.91-32.17-27.15-70.93,20.17-49.39,51.91Z"/>
</svg>