<?xml version="1.0" encoding="UTF-8"?>
<svg id="Layer_1" xmlns="http://www.w3.org/2000/svg" version="1.1" viewBox="0 0 1080 1080">
  <!-- Generator: Adobe Illustrator 30.0.0, SVG Export Plug-In . SVG Version: 2.1.1 Build 123)  -->
  <defs>
    <style>
      .st0 {
        fill: #050805;
      }

      .st1 {
        fill: #ff5703;
      }
    </style>
  </defs>
  <path class="st1" d="M732.83,428.15c-9.66,9.77-17.71,20.82-20.25,32.89-1,4.75-1.44,7.47,3.06,9.28l21.94,6.64h0c1.65-14.14,2.65-36.41-4.75-48.81Z"/>
  <path class="st0" d="M715.64,470.32c-4.5-1.81-4.06-4.53-3.06-9.28,2.54-12.07,10.59-23.12,20.25-32.89,0,0,0,0,0,0v-.02s-2.6-3.49-2.6-3.49c-9.64-.76-28.41,30.65-26.27,45.91.36,2.6,2.31,4.7,4.85,5.36l27.62,7.19c.19-.91.83-3.39,1.15-6.15h0s-21.94-6.64-21.94-6.64Z"/>
  <path class="st1" d="M600.32,161.87c-1.71-.77-6.46-4.17-10.31-4.52-7.94-.72-20.16,9.76-26.5,15.13-2.43,2.06-5.79,4.9-6,5.09,21.41,15.51,33.37-1.49,42.81-15.71Z"/>
  <path class="st1" d="M657.74,222.12c6.32-.12,16.97-10.07,27.55-18.64-.34-.32-7.23-4.97-10.34-5.78-10.29-2.7-15.95-.38-25.21,5.16-3.37,2.02-6.75,5.34-7.99,6.09,1.45,2.08,10.97,13.27,15.99,13.17Z"/>
  <path class="st0" d="M596.11,179.03c4.25-3.64,6.98-8.61,10.95-12.47-.35-.3-2.53-1.97-4.07-2.97-2.31-1.5-1.34-.92-2.66-1.72-9.45,14.21-21.41,31.21-42.81,15.71-3.08,2.84-3.08,3-5.51,5.51,20.89,14.28,25.64,11.77,44.11-4.05Z"/>
  <path class="st1" d="M728.16,386.77c-.56-4.59-3.34-11.09-6.41-16.28-3.69-6.25-9.01-13.65-17.45-20.66-3.96,4.92-10.85,13.68-11.29,18.15-1.28,13.03,25.15,18.08,35.14,18.8Z"/>
  <path class="st1" d="M703.95,470.56c-2.13-15.25,16.63-46.67,26.27-45.91l2.59,3.49c-3.91-6.54-10.16-10.32-19.89-8.7-28.18,4.68-40.37,62.27-73.41,72.35-2.26.69-4.6,1.23-7.03,1.61-41.49,6.41-54.06-22-37.77-57.02,8.51-18.3,24.88-25.04,44.78-26.84,7.49-.68,62.58,5.26,67.03,4.84,4.45-.42,9.01-1.13,13.29-4.9s8.3-12.29,8.34-14.45c-10.19,2.05-35.96-10.39-41.5-17.74-7.02-9.32,7.15-24.68,12.33-31.52-5.44-3.81-11.93-7.41-19.77-10.53-29.65-11.81-57.45-1.24-85.92,10.24-2.58-2.4,17.84-27.13,20.59-30.3,18.97-21.88,64.74-54.67,77-74.38,4.77-7.66,6.6-16.39,2.64-26.69-.62-1.61-3.65-5.93-3.91-6.24l-25.18,18.06c-6.81,4.87-13.05.5-15.57-1.52l-11.55-11.03c-1.12.65-8.68,7.8-16.19,13.56-25.45,19.49-60.84,66.02-78.24,84.15,0,0,14.61-40.95,28.12-61.96,10.94-17.03,46.1-49.18,43.94-67.03-1.29-10.68-4.51-12.61-7.9-15.5-3.97,3.86-6.69,8.82-10.95,12.47-18.47,15.82-23.22,18.33-44.11,4.05-12.42,12.82-22.5,30.01-32.3,45.42l-41.76,76.46c-.37-13.52,9.73-52.21,14.21-64.75,6.24-17.49,31.76-56.47,32.22-69.8.42-12.01-10.07-24-21.92-25.87,1.3,8.9-10.83,29.14-19.11,39.66-3.08,3.91-8.34,5.37-12.98,3.55l-11.94-4.68c-47.43,89.19-49.21,217.11-57.83,317.89-5.11,59.69-3.53,114.34-31.57,169.37-39.8,78.12-98.11,131.74-176.21,170.61-7.04,50.08-3.22,100.89-4.13,151.36,54.75-12.58,112.66-28.16,163.36-52.68,72.29-34.96,170.68-148.56,205.95-220.69,17.21-35.2,22.78-67.63,49.13-99.5,40.22-48.63,114.15-63.3,129.29-136.33l-27.62-7.19c-2.54-.66-4.48-2.76-4.85-5.36Z"/>
  <path class="st0" d="M686.66,377.28c5.54,7.35,31.31,19.8,41.5,17.74.05-2.64.31-5.71,0-8.26-9.99-.72-36.42-5.77-35.14-18.8.44-4.47,7.33-13.22,11.29-18.15.03-.04.02-.02,0,0l-5.29-4.11s-.02.03-.03.04c-5.18,6.85-19.35,22.2-12.33,31.52Z"/>
  <path class="st1" d="M496.95,144.55c-13.68.63-20.57,10.66-27.74,22.19-2.11,3.4-5.36,8.08-6.13,9.36,18.96,16.38,27.4-18.94,33.87-31.55Z"/>
  <path class="st0" d="M483.34,184.21c8.28-10.52,20.41-30.76,19.11-39.66-1.59-.25-3.79-.08-5.51,0-6.46,12.61-14.91,47.93-33.87,31.55-1.44,2.4-1.99,2.74-4.67,6.99l11.94,4.68c4.64,1.82,9.9.36,12.98-3.55Z"/>
  <path class="st0" d="M664.45,225.91l25.18-18.06c-.36-.42-1.32-1.4-2.76-2.82-1.46-1.43-1.22-1.21-1.58-1.55-10.58,8.56-21.22,18.52-27.55,18.64-5.02.1-14.54-11.1-15.99-13.17-3.11,3.1-4.01,4.18-4.42,4.41l11.55,11.03c2.51,2.02,8.76,6.38,15.57,1.52Z"/>
</svg>