<?xml version="1.0" encoding="UTF-8"?>
<svg id="uuid-80e107a7-06ae-45e2-ace2-7da0a3ae8f81" data-name="Layer 1" xmlns="http://www.w3.org/2000/svg" viewBox="0 0 1080 1080">
  <defs>
    <style>
      .uuid-feb30b5c-4bed-4d78-873b-2b54b4f3ee2c {
        fill: #25161c;
      }

      .uuid-ac34a8f6-ce7b-41eb-9cb9-b844b1d436b4 {
        fill: #fdacd9;
      }
    </style>
  </defs>
  <path class="uuid-ac34a8f6-ce7b-41eb-9cb9-b844b1d436b4" d="M903.1,414.05c-4.95-53.72-57.98-114.31-115.21-107.75-93.86,10.76-127.3,188.8-196.16,214.22-36.44,13.45-107.53,1.5-138.1-23.6-42.23-34.67-37.61-94.73-69.16-135.87-70.56-92.01-225.01-53.86-244.38,58.68-36.04,209.32,210.74,409.24,406.43,394.7,92.94-6.9,217.58-68.7,275.48-142.44,41.09-52.34,87.13-192.63,81.11-257.93ZM828.22,490.9c-18.71-.26-6.06-27.22-23.59-31.52-15.44,62.44-61.83,141.74-117.12,176.66-119.86,75.71-246.71,76.56-344.15-32.76-35.74-40.09-75.47-99.12-86.8-151.79-10.79,5.73-18.89,16.52-19.6,28.88l-11.87,2.64c-4.05-32.29,45.88-64.32,74.05-56.64,9.94,2.71,14.59,5.92,12.64,17.21-68.57-22.12-38.02,34.51-18.92,68.26,90.08,159.14,223.91,216.98,388.32,113.91,51.95-32.56,98.14-111.67,111.57-170.31l-27.56,7.85c17.39-44.52,74.16-15.18,63.04,27.6Z"/>
  <path class="uuid-feb30b5c-4bed-4d78-873b-2b54b4f3ee2c" d="M765.18,463.29l27.56-7.85c-13.44,58.64-59.63,137.74-111.57,170.31-164.42,103.07-298.24,45.22-388.32-113.91-19.1-33.75-49.64-90.37,18.92-68.26,1.95-11.3-2.7-14.5-12.64-17.21-28.17-7.68-78.1,24.35-74.05,56.64l11.87-2.64c.72-12.36,8.81-23.15,19.6-28.88,11.33,52.67,51.06,111.7,86.8,151.79,97.44,109.32,224.29,108.48,344.15,32.76,55.29-34.93,101.68-114.23,117.12-176.66,17.53,4.3,4.88,31.26,23.59,31.52,11.12-42.79-45.65-72.13-63.04-27.6Z"/>
</svg>