<?xml version="1.0" encoding="UTF-8"?>
<svg id="uuid-835f119d-33c3-4556-842d-ebec1d8a476f" data-name="Layer 1" xmlns="http://www.w3.org/2000/svg" viewBox="0 0 1080 1080">
  <defs>
    <style>
      .uuid-b94e18cd-4bfc-4697-a12b-df2a5573788e {
        fill: none;
      }

      .uuid-2d179112-1c50-49f0-af5c-91e242eae59a {
        fill: #eeeff1;
      }

      .uuid-cd13ec50-a396-4bc4-8dde-424b8ecea40d {
        fill: #faf9f8;
      }

      .uuid-9c330c4a-f537-4ce4-94ce-76dd439b332f {
        fill: #060303;
      }

      .uuid-a72bda49-9cfe-43a5-aaf9-64ad86cb5226 {
        fill: #13ce56;
      }

      .uuid-83e5c586-24c8-428a-b05b-69cc462d39fe {
        fill: #f8acd6;
      }
    </style>
  </defs>
  <path class="uuid-b94e18cd-4bfc-4697-a12b-df2a5573788e" d="M467.85,182.74c5.43-2.33,10.08-4.28,14.28-5.93-6.33,1.81-11.41,3.84-14.28,5.93Z"/>
  <path class="uuid-b94e18cd-4bfc-4697-a12b-df2a5573788e" d="M537.24,169.72c5.42.58,8.88.9,12.23,1.39-5.17-.87-9.44-1.33-12.23-1.39Z"/>
  <path class="uuid-a72bda49-9cfe-43a5-aaf9-64ad86cb5226" d="M510.36,371.98l-3.54-4.83c-33.38-45.92-71.03.99-86.67,36.8-3.26,7.47-16.09,42.33-17.35,47.71-30.45,130.2,39.45,243.72-23.67,368.87-16.43,32.57-42.64,78.65-55.87,98.5-3.9,5.85-17.93,27.26-17.93,27.26,13.44-.92,38.62-22.96,49.83-32.62,5.94-5.12,44.73-41.5,46.66-44.53-4.93,37.02-30.09,68.71-42.39,102.98,0,0,23.75-14.03,28.08-17.41,61.03-47.63,133.81-153.29,140.97-232.02,7.52-82.61-23.5-162.21,13.08-245,11.35-25.69,28.47-41.15,43.36-60.73-.98-39.23-41.2-78.91-74.58-44.98Z"/>
  <path class="uuid-83e5c586-24c8-428a-b05b-69cc462d39fe" d="M647.45,196.12c-39.31-68.49-105.61-82.53-176.81-51.8-103.09,44.49-133.49,221.29-67.83,307.35,1.26-5.38,14.08-40.24,17.35-47.71-12.49-11.54-19.43-33.68-21.2-50.33-6.25-58.85,14.48-139.79,68.9-170.89,2.87-2.09,7.96-4.11,14.28-5.93,19.27-7.56,28.63-8.44,55.1-7.08,2.79.06,7.05.51,12.23,1.39,3.85.56,7.53,1.32,13.79,2.95,9.68,2.52,12.67,2.49,24.85,9.9,12.65,7.69,16.55,14.47,22.85,24.8,39.44,64.7,17.35,151.21-26.02,208.2-14.89,19.57-32.01,35.03-43.36,60.73,99.44-35.2,157.91-190.9,105.87-281.57Z"/>
  <path class="uuid-9c330c4a-f537-4ce4-94ce-76dd439b332f" d="M506.82,367.15l3.54,4.83c33.38-33.92,73.61,5.75,74.58,44.98,43.37-56.99,65.46-143.51,26.02-208.2l-33.95,67.97-26.72,40.44v-45.48s12.97-97.64,12.97-97.64c-6.26-1.63-9.94-2.39-13.79-2.95-3.34-.48-6.81-.81-12.23-1.39l-69.45,143.12-8.67-2.21,8.73-127.9c-54.41,31.1-75.14,112.04-68.9,170.89,1.77,16.65,8.71,38.79,21.2,50.33,15.63-35.81,53.29-82.72,86.67-36.8Z"/>
  <path class="uuid-cd13ec50-a396-4bc4-8dde-424b8ecea40d" d="M467.79,312.85l69.45-143.12c-26.47-1.35-35.83-.47-55.1,7.08-4.2,1.65-8.85,3.6-14.28,5.93l-8.73,127.9,8.67,2.21Z"/>
  <path class="uuid-2d179112-1c50-49f0-af5c-91e242eae59a" d="M550.29,317.18l26.72-40.44,33.95-67.97c-6.3-10.33-10.2-17.11-22.85-24.8-12.18-7.41-15.17-7.38-24.85-9.9l-12.97,97.64v45.48Z"/>
</svg>