<?xml version="1.0" encoding="UTF-8"?>
<svg id="uuid-84d26cb4-c625-4acd-8825-c8fb8e129321" data-name="Layer 1" xmlns="http://www.w3.org/2000/svg" viewBox="0 0 1080 1080">
  <defs>
    <style>
      .uuid-eba16955-df03-47c4-bf1e-924a16dfd67e {
        fill: #231f20;
      }

      .uuid-6ddba0fb-2f7f-4000-a6eb-1339bd81e59e {
        fill: #fff;
      }
    </style>
  </defs>
  <polygon class="uuid-eba16955-df03-47c4-bf1e-924a16dfd67e" points="966.04 484.22 965.38 484.22 933.51 484.22 932.85 484.22 900.98 484.22 900.32 484.22 868.45 484.22 867.78 484.22 835.92 484.22 835.25 484.22 803.38 484.22 802.72 484.22 770.85 484.22 770.19 484.22 738.32 484.22 737.65 484.22 705.79 484.22 705.12 484.22 673.25 484.22 672.59 484.22 640.72 484.22 640.06 484.22 608.19 484.22 607.53 484.22 575.66 484.22 574.99 484.22 543.13 484.22 542.46 484.22 510.59 484.22 509.93 484.22 478.06 484.22 477.4 484.22 445.53 484.22 444.87 484.22 413 484.22 412.33 484.22 380.47 484.22 379.8 484.22 347.93 484.22 347.27 484.22 315.4 484.22 314.74 484.22 282.87 484.22 282.21 484.22 250.34 484.22 249.67 484.22 217.81 484.22 217.14 484.22 185.27 484.22 184.61 484.22 152.74 484.22 152.08 484.22 120.21 484.22 119.55 484.22 87.68 484.22 87.01 484.22 54.48 484.22 54.48 517.41 87.01 517.41 87.68 517.41 106.88 517.41 106.88 542.39 106.88 542.39 106.88 573.55 139.41 573.55 140.07 573.55 143.13 573.55 143.13 604.75 175.66 604.75 176.33 604.75 180.45 604.75 180.45 636.24 212.99 636.24 213.65 636.24 245.52 636.24 246.18 636.24 278.05 636.24 278.71 636.24 310.58 636.24 311.25 636.24 343.11 636.24 343.78 636.24 375.65 636.24 376.31 636.24 408.18 636.24 408.84 636.24 441.38 636.24 441.38 604.75 469.12 604.75 469.12 573.55 497.92 573.55 497.92 540.36 497.92 540.36 497.92 517.41 509.93 517.41 510.59 517.41 542.46 517.41 543.13 517.41 557.38 517.41 557.38 542.39 557.38 542.39 557.38 573.55 589.92 573.55 590.58 573.55 593.64 573.55 593.64 604.75 626.17 604.75 626.83 604.75 630.96 604.75 630.96 636.24 663.49 636.24 664.16 636.24 696.02 636.24 696.69 636.24 728.56 636.24 729.22 636.24 761.09 636.24 761.75 636.24 793.62 636.24 794.29 636.24 826.15 636.24 826.82 636.24 858.68 636.24 859.35 636.24 891.88 636.24 891.88 604.75 919.62 604.75 919.62 573.55 948.43 573.55 948.43 540.36 948.43 540.36 948.43 517.41 965.38 517.41 966.04 517.41 998.58 517.41 998.58 484.22 966.04 484.22"/>
  <g>
    <rect class="uuid-6ddba0fb-2f7f-4000-a6eb-1339bd81e59e" x="144.53" y="517.17" width="33.2" height="33.2"/>
    <rect class="uuid-6ddba0fb-2f7f-4000-a6eb-1339bd81e59e" x="177.75" y="550.4" width="33.2" height="33.2"/>
    <rect class="uuid-6ddba0fb-2f7f-4000-a6eb-1339bd81e59e" x="210.94" y="517.2" width="33.2" height="33.2"/>
    <rect class="uuid-6ddba0fb-2f7f-4000-a6eb-1339bd81e59e" x="244.14" y="550.39" width="33.2" height="33.19"/>
  </g>
  <g>
    <rect class="uuid-6ddba0fb-2f7f-4000-a6eb-1339bd81e59e" x="600.36" y="517.11" width="33.2" height="33.2"/>
    <rect class="uuid-6ddba0fb-2f7f-4000-a6eb-1339bd81e59e" x="633.57" y="550.34" width="33.2" height="33.2"/>
    <rect class="uuid-6ddba0fb-2f7f-4000-a6eb-1339bd81e59e" x="666.76" y="517.14" width="33.2" height="33.19"/>
    <rect class="uuid-6ddba0fb-2f7f-4000-a6eb-1339bd81e59e" x="699.96" y="550.33" width="33.2" height="33.2"/>
  </g>
</svg>