<?xml version="1.0" encoding="UTF-8"?>
<svg id="uuid-5c929863-7af6-44ff-80c1-aaa310ec9d5e" data-name="Layer 1" xmlns="http://www.w3.org/2000/svg" viewBox="0 0 1080 1080">
  <defs>
    <style>
      .uuid-a93f9c12-a243-4038-99b5-7781035805d3 {
        fill: none;
      }

      .uuid-1c5cd3ac-3814-4d30-888a-4b676b0ccd62 {
        fill: #18673b;
      }

      .uuid-e9a26087-6db4-4f7b-aaba-701b0f2c74b7 {
        fill: #f8acd6;
      }
    </style>
  </defs>
  <path class="uuid-a93f9c12-a243-4038-99b5-7781035805d3" d="M230.32,812.86c28.06-97.61,69.95-189.71,129.99-269.62-61.56,81.06-103.19,174.9-130.25,269.77l.26-.15Z"/>
  <path class="uuid-a93f9c12-a243-4038-99b5-7781035805d3" d="M768.78,704.66c9.05,24.9,17.9,48.08,25.67,71.08-7.93-24.09-16.9-48.16-25.67-71.08Z"/>
  <path class="uuid-a93f9c12-a243-4038-99b5-7781035805d3" d="M515.7,422.89c3.07,9.02,4.2,16.59,6.45,24.1-2.25-7.51-3.37-16.31-6.45-24.1Z"/>
  <path class="uuid-a93f9c12-a243-4038-99b5-7781035805d3" d="M375.43,524.08c-5.08,6.19-10.04,12.45-14.87,18.81,4.8-6.38,9.84-12.59,14.87-18.81Z"/>
  <path class="uuid-e9a26087-6db4-4f7b-aaba-701b0f2c74b7" d="M234.91,879.22c-.9-.2-1.64-.37-2.46-.55.83.18,1.62.37,2.46.55Z"/>
  <path class="uuid-e9a26087-6db4-4f7b-aaba-701b0f2c74b7" d="M816.01,847.79c5.75-1.4,11.44-2.83,17.08-4.28-3.65.93-13.13,3.3-17.08,4.28Z"/>
  <path class="uuid-e9a26087-6db4-4f7b-aaba-701b0f2c74b7" d="M697.01,872.88c-.91.16-1.81.32-2.82.52.94-.17,1.87-.34,2.82-.52Z"/>
  <path class="uuid-e9a26087-6db4-4f7b-aaba-701b0f2c74b7" d="M230.06,813.01c27.06-94.87,68.69-188.71,130.25-269.77.09-.12.17-.23.26-.35,4.83-6.35,9.79-12.62,14.87-18.81,36.63-44.65,79.75-84.94,130.37-118.68-207.19,48.01-268.32,180.34-322.8,322.87-20.04,52.43-27.79,127.91-27.79,127.91,0,0,20.59,8.59,59.32,18.25,4.67-20.73,9.96-41.26,15.79-61.58l-.26.15Z"/>
  <path class="uuid-e9a26087-6db4-4f7b-aaba-701b0f2c74b7" d="M406.44,900.22l-10.92-.44c3.59.17,7.25.31,10.92.44Z"/>
  <path class="uuid-e9a26087-6db4-4f7b-aaba-701b0f2c74b7" d="M568.61,893.85c-4.95.56-12.04,1.69-20.09,2.8,4.1-.55,10.92-1.48,20.09-2.8Z"/>
  <path class="uuid-1c5cd3ac-3814-4d30-888a-4b676b0ccd62" d="M834.47,843.15s0,0,0-.01c-1.57-6.53-3.25-13.06-4.96-19.58-32.4-119.1-84.28-230.57-164.53-327-26.24-31.53-63.18-66.02-99.49-90.39-4.44-2.19-5.94-3.13-5.94-3.13-.38-7.37-.62-13.12-1.28-20.17,53.68-8.02,113.97-13.64,167.43-23.02,27.48-4.83,124.41-13.62,100.45-60.87-12.5-24.66-89.24-8.83-112.9-3.56-39.46,8.79-157.31,59.07-157.31,59.07-.24-12.99-9.86-28.17-25.5-25.74-13.96,2.16-21.89,4.81-24.09,27.33-56.67-18.27-150.42-68.13-209.85-61.88-26.11,2.75-50.14,26.38-26.9,46.8,33.9,29.79,187.28,36.88,235.34,46.93.29,5.12,1.44,14.24.87,17.47-50.62,33.74-93.73,74.03-130.37,118.68-5.03,6.22-10.07,12.43-14.87,18.81-.09.12-.17.23-.26.35-60.04,79.91-101.93,172.01-129.99,269.62-5.84,20.31-11.12,40.85-15.79,61.58,0,0,0,0,0,0,0,0,2.58.77,17.92,4.22.82.19,1.56.35,2.46.55.18.04.31.07.49.11,0,0,0,0,0,0,2.23-10.42,4.59-20.81,7.08-31.16,37.09-155.55,104.9-299.59,230.11-403.55,5.85-4.86,18.92-14.96,28.35-21.72-58.12,131.51-99.6,287.89-107.54,434.07-.69,14.26-1.22,28.49-1.4,42.63,0,.01,0,.03,0,.04l3.53.14,10.92.44,5.45.22s0-.02,0-.03c.5-11.87,1.2-23.88,2.01-35.95,6.8-148.16,42.15-308.24,101.8-441.58,3.07,7.79,4.2,16.59,6.45,24.1,20.56,68.75,22.92,157.86,25.61,229.2.52,13.93-1.15,38.46-1.07,53.28.27,49.44-2.35,90.32-.22,137.47.55,10,1.17,19.94,1.96,29.71h0s.06,0,.09-.01c8.06-1.1,15.15-2.24,20.09-2.8.03,0,.06,0,.09-.01h0s.12-4.75.12-4.75h0s-1-262.54-3.8-291.82c-5.25-54.87-20.41-122.75-24.91-177.74l26.18,50.98c55.24,127.07,102.09,266.01,111.63,405.83,6.7-1.07,11.96-2.12,16.28-2.94,1.01-.19,1.91-.35,2.82-.52.44-.08.94-.18,1.36-.25,0,0,0,0,0,0-1.61-21.11-4.19-42.72-7.39-64.44-11.12-63.45-29.71-133.04-34.32-150.17-9.44-35.09-98.42-238.49-98.42-238.49,82.13,56.67,172.88,181.5,210.53,285.13,8.77,22.92,17.73,46.99,25.67,71.08,6.57,19.46,12.37,38.79,16.73,58.92,2.85,12.61,2.97,11.74,3.2,13.53,0,0,0,0,0,.01.25-.06.86-.21,1.64-.41,3.94-.98,13.43-3.36,17.08-4.28.68-.17,1.2-.3,1.39-.35Z"/>
  <path class="uuid-e9a26087-6db4-4f7b-aaba-701b0f2c74b7" d="M500.94,422.89c-9.43,6.77-22.5,16.86-28.35,21.72-125.21,103.96-193.02,248-230.11,403.55-2.5,10.35-4.86,20.74-7.08,31.16,39.12,8.58,91.89,17,156.6,20.27.18-14.14.71-28.37,1.4-42.63,7.94-146.18,49.42-302.56,107.54-434.07Z"/>
  <path class="uuid-e9a26087-6db4-4f7b-aaba-701b0f2c74b7" d="M546.69,729.48c-.08-14.82,1.6-39.36,1.07-53.28-2.69-71.33-5.05-160.45-25.61-229.2-2.25-7.51-3.37-15.08-6.45-24.1-59.65,133.34-95,293.41-101.8,441.58-.8,12.07-1.51,24.08-2.01,35.95,39.98,1.3,84.1.62,132.14-3.18,0,0,1.62-.21,4.39-.58-.78-9.77-1.4-19.71-1.96-29.71-2.13-47.16.49-88.03.22-137.47Z"/>
  <path class="uuid-e9a26087-6db4-4f7b-aaba-701b0f2c74b7" d="M794.45,775.74c-7.77-23-16.62-46.18-25.67-71.08-37.65-103.63-128.41-228.46-210.53-285.13,0,0,88.97,203.4,98.42,238.49,4.61,17.13,23.2,86.71,34.32,150.17,3.19,21.73,5.78,43.34,7.39,64.44,37.5-6.93,77.78-15.15,116-24.45-.22-1.79-.34-.91-3.2-13.53-4.36-20.12-10.16-39.46-16.73-58.92Z"/>
  <path class="uuid-e9a26087-6db4-4f7b-aaba-701b0f2c74b7" d="M664.98,496.56c80.25,96.43,132.13,207.9,164.53,327,1.71,6.52,3.39,13.05,4.96,19.58,28.63-7.42,55.53-15.44,78.45-23.98l-4.85-15.28c-1.53-4.99-3.1-9.97-4.74-14.93l-1.35-4.25h-.1c-35.06-103.24-95.18-198.89-166.94-280.16-46.35-52.5-99.71-101.58-175.4-101.52,0,0,1.5.94,5.94,3.13,36.31,24.37,73.25,58.85,99.49,90.39Z"/>
  <path class="uuid-e9a26087-6db4-4f7b-aaba-701b0f2c74b7" d="M566.28,470.51l-26.18-50.98c4.49,54.99,19.66,122.87,24.91,177.74,2.8,29.29,3.8,291.82,3.8,291.82h0l-.12,4.75c24.06-3.44,63.6-9.41,109.04-17.47.06,0,.12-.02.18-.03-9.54-139.82-56.39-278.76-111.63-405.83Z"/>
</svg>