<?xml version="1.0" encoding="UTF-8"?>
<svg id="Layer_1" xmlns="http://www.w3.org/2000/svg" version="1.1" viewBox="0 0 1080 1080">
  <!-- Generator: Adobe Illustrator 30.0.0, SVG Export Plug-In . SVG Version: 2.1.1 Build 123)  -->
  <defs>
    <style>
      .st0 {
        fill: none;
      }

      .st1 {
        fill: #fcabd7;
      }

      .st2 {
        fill: #05602e;
      }
    </style>
  </defs>
  <path class="st0" d="M493.17,390.69s0-.03,0-.05c0,.02,0,.03,0,.05Z"/>
  <path class="st0" d="M493.19,389.69c-.02-2.12-.24-4.47-.69-7.07.46,2.69.69,5.03.69,7.07Z"/>
  <path class="st2" d="M262.79,786.62l11.45,187.44c13.35.27,30.05.17,42.89.14,25.26-.06,77.08-2.66,104.21-6.78,255.57-38.75,381.41-198.71,392.66-452.21,5.62-126.66,11.52-334.01-53.96-443.05-7.61,6.17-16.07,7.78-23.13,5.93-8.46-2.22-26.7-22.6-30.86-31.34-2.84,2.33-6.61,3.74-9.78,13.44-8.41,25.67,21.76,60.57,31.21,87.42,5.1,14.5,10.76,29.61,10.3,45.23l-46-70.31c-10.93-16.23-23.68-31.6-36.55-44.02-14.41,29.01-46.13,7-57.17-12.7-5.43,5.95-10.37,15.66-3.34,34.1,6.07,15.93,37.87,45.71,51.24,64.52,7.06,9.94,25.82,38.25,28.31,50.64-6.85-7.3-20.22-23.48-22.22-25.39-38.84-37.11-46.28-49.63-88.93-76.23-5.82,32.21-40.55,14.67-57.17,0-2.38,4.92-5.55,6.4-6.19,17.11-1.54,25.77,56.72,62.47,76.15,82.86,7.61,7.98,18.19,20.16,25.24,28.76,2.35,2.87,15.12,18.42,12.78,20.54-35.95-10.49-54.83-22.99-91.93-8.49-8.95,3.5-17.87,9.08-22.39,11.68,23.27,25.37-11.12,43.39-34.94,47.64.38,6.95,2.42,9.3,7.18,15.52,14.99,19.58,51.13,7.87,70.51,6.61,25.7-1.68,56.59.62,70.15,25.36,39.03,71.22-43.15,95.63-81.13,43.02-16.16-22.38-22.44-69.05-63.54-52.39,15.51,5.39,21.83,14.45,24.68,30.94.46,2.69.69,5.03.69,7.07,0,.33,0,.63-.02.95,0,.02,0,.03,0,.05-.45,20.12-20.27,18.46-38.05,18.16,23.83,105.29,93.12,95.94,146.01,163.67,14.51,18.58,6.51,26.47-3.64,46.99-42.25,85.37-113.83,136.84-208.23,153.85-19.17,3.45-112.13,13.46-126.46,13.27ZM753.54,253.43c2.57-6.59,10.74.95,19.6-.54,6.55-1.1,8.64-14.57,13.55-15.37,10.49-1.71,4.52,25.44-15.43,25.44-5.92,0-10.49-1.4-13.39-2.66-2.72-1.18-5.41-4.11-4.33-6.88ZM704.99,278.95c2.57-6.59,10.74.95,19.6-.54,6.55-1.1,8.64-14.57,13.55-15.37,10.49-1.71,4.52,25.44-15.43,25.44-5.92,0-10.49-1.4-13.39-2.66-2.72-1.18-5.41-4.11-4.33-6.88ZM654.39,304.46c2.57-6.59,10.74.95,19.6-.54,6.55-1.1,8.64-14.57,13.55-15.37,10.49-1.71,4.52,25.44-15.43,25.44-5.92,0-10.49-1.4-13.39-2.66-2.72-1.18-5.41-4.11-4.33-6.88Z"/>
  <path class="st1" d="M492.5,382.62c.45,2.6.67,4.95.69,7.07,0,.33,0,.63-.02.95,0,.02,0,.03,0,.05-.45,20.12-20.27,18.46-38.05,18.16-.26-1.13-.84-10.39-1.38-17.13-1.21-15.11-.52-34.12,14.08-40.04,15.51,5.39,21.83,14.45,24.68,30.94Z"/>
  <path class="st1" d="M598.05,65.82c.68-.76,4.25-5.73,8.01-7.64,11.25-5.72,27.78,3.13,39.28,12.24,5.69,4.51,9.08,7.33,9.88,8.1-14.41,29.01-46.13,7-57.17-12.7Z"/>
  <path class="st1" d="M505.94,113.46c1.04-2.14,2.97-7.24,7.81-10.7,6.37-4.54,21.19-3.6,33.3,2.45,5.19,2.6,15.7,8.02,16.06,8.24-5.82,32.21-40.55,14.67-57.17,0Z"/>
  <path class="st1" d="M736.9,78.1c-8.46-2.22-26.7-22.6-30.86-31.34,12.23-10.05,18.39-8.88,28.73-1.61,13.47,9.49,18.18,15.21,25.27,27.02-7.61,6.17-16.07,7.78-23.13,5.93Z"/>
  <path class="st1" d="M464.65,313.56c-.02-.37-.15-3.48.33-7.99,1.23-11.44,10.19-20.67,19.09-27.83,7.2-5.8,12.01-9.8,15.52-11.82,23.27,25.37-11.12,43.39-34.94,47.64Z"/>
  <path class="st1" d="M773.14,252.89c6.55-1.1,8.64-14.57,13.55-15.37,10.49-1.71,4.52,25.44-15.43,25.44-5.92,0-10.49-1.4-13.39-2.66-2.72-1.18-5.41-4.11-4.33-6.88,2.57-6.59,10.74.95,19.6-.54Z"/>
  <path class="st1" d="M724.59,278.41c6.55-1.1,8.64-14.57,13.55-15.37,10.49-1.71,4.52,25.44-15.43,25.44-5.92,0-10.49-1.4-13.39-2.66-2.72-1.18-5.41-4.11-4.33-6.88,2.57-6.59,10.74.95,19.6-.54Z"/>
  <path class="st1" d="M673.98,303.92c6.55-1.1,8.64-14.57,13.55-15.37,10.49-1.71,4.52,25.44-15.43,25.44-5.92,0-10.49-1.4-13.39-2.66-2.72-1.18-5.41-4.11-4.33-6.88,2.57-6.59,10.74.95,19.6-.54Z"/>
</svg>