<?xml version="1.0" encoding="UTF-8"?>
<svg id="Layer_1" xmlns="http://www.w3.org/2000/svg" version="1.1" viewBox="0 0 1080 1080">
  <!-- Generator: Adobe Illustrator 30.0.0, SVG Export Plug-In . SVG Version: 2.1.1 Build 123)  -->
  <defs>
    <style>
      .st0 {
        fill: #152f1f;
      }

      .st1 {
        fill: #67df92;
      }
    </style>
  </defs>
  <path class="st1" d="M553.59,375.19c40.38,14.88,38.36,118.22,37.21,152.78-2.16,65.14-28.65,108.91,31.58,153.66,49.53,36.8,113.28,54.72,173.61,64.65l-8.41,165.39c-129.75-8.91-256.58-53-359.31-132.95-178.31-138.76-186.04-378.55-168.56-587.54,2.08-24.82,18.79-78.36,51.15-48.39,22.14,20.5,17.42,127.06,23.6,158.96,7.36-7.29,10.24-18.15,19.24-25.14,16.63-12.93,43.27-5.83,45.79,15.83,2.8,24.1-1.73,53.38-.36,78.11-2.17,6.28-47.24,11.58-48.34,37.52-1.03,24.23,28.88,33.81,48.71,35.62.54,21.9-28.36,27.69-41.19,11.21-27.42-35.23-23.59-108.8-21.62-151.05-6.13,2.39-7.56,13.31-8.21,18.87-3.75,32.34,2.46,132.89,37.49,147.32,26.05,10.73,40.02-19.23,42.04-17.8,7.34,20.68,29.8,28.65,48.43,15.57,9.67-6.79,2.63-27.57,20.08-21.27-16.67,37.73-46.31,73.3-42.77,116.97,7.43.64,4.74.41,5.6-4.28,7.4-40.21,19.25-67.37,40.49-102.26,4.1-6.74,6.64-11.78,10.94-18.99-9.41,1.55-17.38,3.24-27.2,3.01-17.91-.42-50.1-1.62-67-4.14-36.53-5.46-58.9-31.29-16.19-50.78,34.03-15.52,94.73-19.09,131.92-16.7,8.06.52,35.12,3.56,41.26,5.82Z"/>
  <path class="st1" d="M553.59,372.34c-21.61-11-50.35-10.38-74.17-11.44-3.98-4.2,1.73-41.53-8.58-45.64v48.51l-62.67,5.61c-3.37-2.93-4.36-68.17-2.97-76.95,2.3-14.43,21.54-22.37,35.02-19.43,17.54,3.82,23.77,27.87,33.44,39.41-.48-20.49,4.2-41.1,5.71-61.38,1.04-13.99,3.21-29.98,4.44-43.89,1.66-18.81,8.99-58.1,31.2-60.42,29.43-3.07,32.47,21.5,35.7,44.44,8.4,59.73-1.45,121.96,2.89,181.17Z"/>
  <path class="st0" d="M405.21,292.44c-1.4,8.78,1.78,71.62,3,75.81l62.63-6.58v-53.08c9.69,7.49,8.31,38.05,8.58,52.32,23.82,1.06,52.55.44,74.17,11.44v2.85c-6.14-2.26-33.2-5.31-41.26-5.82-37.19-2.39-97.89,1.17-131.92,16.7-42.71,19.49-20.34,45.32,16.19,50.78,16.9,2.53,49.09,3.72,67,4.14,9.81.23,17.78-1.46,27.2-3.01-4.44,7.6-6.84,12.25-10.94,18.99-21.24,34.89-33.09,62.05-40.49,102.26-.86,4.69,1.83,4.92-5.6,4.28-3.54-43.66,26.1-79.24,42.77-116.97-3.57.55-7.72.21-7.72.21-3.89,4.79-5.85,16.48-12.36,21.06-18.63,13.08-42.66,4.76-50-15.92.49,3.39-14.43,28.89-40.47,18.16-35.03-14.43-41.24-114.97-37.49-147.32.64-5.56,2.31-21.39,8.44-23.77-1.97,42.25-6.03,120.73,21.39,155.95,12.83,16.48,41.73,10.68,41.19-11.21-19.83-1.81-49.74-11.39-48.71-35.62,1.1-25.94,44.41-34.51,48.34-37.52-1.37-24.73,3.16-54.01.36-78.11h5.71ZM462.27,446.55l-51.34-2.85c6.37,29.36,42.3,31.35,51.34,2.85Z"/>
  <path class="st1" d="M462.27,446.55c-9.03,28.5-44.97,26.5-51.34-2.85l51.34,2.85Z"/>
</svg>