<?xml version="1.0" encoding="UTF-8"?>
<svg id="uuid-9d6a3c80-b9cb-4c42-813f-eba1ccfd9eb6" data-name="Layer 1" xmlns="http://www.w3.org/2000/svg" viewBox="0 0 1080 1080">
  <defs>
    <style>
      .uuid-9cac99c2-c574-4f68-80a2-ffa07c6c4892 {
        fill: #d2c78f;
      }

      .uuid-aa131c1d-4412-4b70-9042-6cd9e7a496ea {
        fill: #0d0402;
      }
    </style>
  </defs>
  <path class="uuid-aa131c1d-4412-4b70-9042-6cd9e7a496ea" d="M842.59,554.1l-256.4-.73c-13.16,3.42-16.63,13.83-18.02,26.12-1.29,11.49-1.52,69.62,2.92,75.9,4.97,7.03,27.43,9.97,36.53,10.76,59.01,5.13,145.07,3.92,203.1-.18,41.49-2.94,42.32-5.15,45.44-47.04,1.45-19.5,9.56-57.79-13.58-64.83Z"/>
  <path class="uuid-9cac99c2-c574-4f68-80a2-ffa07c6c4892" d="M896.04,538.18c-59.9-7.85-137.81-2.31-200.34-4.29-39.82-.68-86.85,2.63-128.35,1.81-29.9-.59-24.71,44.57-27.46,50.32-14.49-8.18-34.75-15.21-56.84-.32-2.75-5.75.74-51.99-29.16-51.39-41.51.83-88.53-2.49-128.35-1.81-62.52,1.98-140.43-3.56-200.34,4.29-39.86,5.22.75,24.83,10.71,41.26l5.74,97.12c2.18,7.51,15.33,7.45,22.68,8.2,57.68,5.89,108.41,3.11,164.09,3.37,52.52.24,95.42,2.2,140.59-3.03,18.81-1.94,9.55-71.7,15.01-77.28,15.25-14.75,41.01-11.5,52.75.5,5.46,5.58-3.38,76.23,15.43,78.17,45.17,5.23,88.07,3.28,140.59,3.03,55.68-.26,106.41,2.52,164.09-3.37,7.35-.75,20.5-.69,22.68-8.2l5.74-97.12c9.97-16.43,50.57-36.04,10.72-41.26ZM453.89,656.6c-4.95,9.76-25.11,11.24-38.86,11.55-59.22,1.32-144.48,4.18-202.51.07-41.49-2.94-48.8-3.47-49.64-12.44-1.5-16-4.39-70.29-4.37-93.23,0-5.42,4.44-9.8,9.86-9.82l276.45-.79c11.42.84,9.71,14.71,11.09,27,1.29,11.49,1.72,70.29-2.01,77.66ZM810.72,665.97c-58.03,4.11-144.09,5.32-203.1.18-9.1-.79-31.56-3.73-36.53-10.76-4.44-6.28-4.21-64.42-2.92-75.9,1.38-12.29,4.85-22.7,18.02-26.12l256.4.73c23.14,7.04,15.04,45.33,13.58,64.83-3.12,41.89-3.95,44.1-45.44,47.04Z"/>
  <path class="uuid-aa131c1d-4412-4b70-9042-6cd9e7a496ea" d="M444.82,551.94l-276.45.79c-5.42.02-9.86,4.39-9.86,9.82-.02,22.95,2.88,77.23,4.37,93.23.84,8.97,8.15,9.5,49.64,12.44,58.03,4.11,143.29,1.24,202.51-.07,13.75-.31,33.91-1.79,38.86-11.55,3.73-7.37,3.31-66.17,2.01-77.66-1.38-12.29.33-26.16-11.09-27Z"/>
</svg>