<?xml version="1.0" encoding="UTF-8"?>
<svg id="uuid-8330f189-c77c-47a0-9681-2bcfc5cd34f8" data-name="Layer 1" xmlns="http://www.w3.org/2000/svg" viewBox="0 0 1080 1080">
  <defs>
    <style>
      .uuid-939c5220-03b3-4885-90a0-4399a878b935 {
        fill: none;
      }

      .uuid-a86c6a92-78a0-42af-9c38-867879dc1ef7 {
        fill: #0d0402;
      }

      .uuid-a6a11a16-0436-40aa-9d6d-67f92f5ae9f7 {
        fill: #fdec1a;
      }

      .uuid-0a62a258-8d8a-4488-95c0-39540d789eb8 {
        fill: #6ecafa;
      }
    </style>
  </defs>
  <path class="uuid-939c5220-03b3-4885-90a0-4399a878b935" d="M809.71,579.14c-.05,5.69,1.34,11.74,5.18,17.83-3.76-5.96-5.17-12.05-5.18-17.83Z"/>
  <path class="uuid-0a62a258-8d8a-4488-95c0-39540d789eb8" d="M883.03,456.21c-48.43-41.23-123.09-75.49-201.33-31.93-68.21,37.97-79.08,81.92-92.43,114.41-21.68-17.28-30.34-23.96-62.71-23.96-28.35,0-49.64,22.77-49.64,22.77-25.3-114.21-168.4-180.37-276.37-119.65-24.91,14.01-79.01,67.51-91.65,106.8-73.28,227.72,241.27,339.01,352.52,151.01,18.88-31.9,20.81-74.9,20.81-74.9,32.1-27.31,66.81-27.31,98.73-.33,9.05,111.76,73.45,199.15,191.11,188.39,168.9-15.45,240.38-222.46,110.97-332.62ZM386.91,693.88c-82.62,62.77-236.71,20.66-241.57-92.57-3.28-76.46,50.49-151.51,128-162.14,136.97-18.79,220.39,173.54,113.57,254.71ZM883.65,674.66c-37.25,63.12-89.02,77.54-159.91,69.89-67.51-7.29-102.92-100.3-98.89-159.41,3.44-50.36,40.86-128.64,95.84-137.99,138.54-23.54,236.76,102.48,162.96,227.51Z"/>
  <path class="uuid-a86c6a92-78a0-42af-9c38-867879dc1ef7" d="M720.69,447.15c-54.97,9.34-92.4,87.62-95.84,137.99-4.03,59.11,31.37,152.12,98.89,159.41,70.89,7.65,122.66-6.77,159.91-69.89,73.8-125.03-24.43-251.05-162.96-227.51ZM790.23,659.87c-21.09-22.98-38.43-20.75-60.38,0,2.48-23.4-11.06-44.55-36.32-40.36,19.42-21.76,32.07-30.21,16.12-60.42,27.6,1.72,39.76-18.66,36.32-44.37,12.72,13.92,36.14,43.09,57.57,39.64,6.73-1.08,12.22-5.13,18.95-7.37-.05,1.89-12.65,15.43-12.78,32.13.01,5.78,1.42,11.87,5.18,17.83,4.59,7.29,9.26,13.98,19.71,18.51-23.53,2.03-46.58,18.84-44.37,44.39Z"/>
  <path class="uuid-a86c6a92-78a0-42af-9c38-867879dc1ef7" d="M273.35,439.16c-77.51,10.63-131.28,85.68-128,162.14,4.85,113.24,158.95,155.35,241.57,92.57,106.82-81.17,23.4-273.5-113.57-254.71ZM334.78,647.74c-27.29-7.2-42.83-16.88-64.45,8.1-2.4-32.4-18.9-49.46-52.44-44.39,20.62-20.63,29.49-39.84,8.06-64.43,32.66,4.63,47.42-17.94,44.38-48.42,19.17,28.68,39.07,48.16,72.48,24.19-7,23.4-6.76,59.8,24.21,60.41-29.39,6.52-45.5,36.4-32.24,64.53Z"/>
  <path class="uuid-a6a11a16-0436-40aa-9d6d-67f92f5ae9f7" d="M814.89,596.96c-3.84-6.09-5.22-12.14-5.18-17.83.13-16.71,12.73-30.24,12.78-32.13-6.73,2.24-12.22,6.29-18.95,7.37-21.43,3.45-44.86-25.72-57.57-39.64,3.45,25.71-8.72,46.09-36.32,44.37,15.95,30.21,3.3,38.65-16.12,60.42,25.26-4.19,38.8,16.96,36.32,40.36,21.95-20.75,39.29-22.98,60.38,0-2.21-25.55,20.84-42.36,44.37-44.39-10.46-4.53-15.12-11.23-19.71-18.51Z"/>
  <path class="uuid-a6a11a16-0436-40aa-9d6d-67f92f5ae9f7" d="M342.81,522.8c-33.41,23.97-53.31,4.48-72.48-24.19,3.04,30.48-11.72,53.05-44.38,48.42,21.43,24.59,12.56,43.8-8.06,64.43,33.54-5.07,50.04,11.98,52.44,44.39,21.62-24.98,37.16-15.3,64.45-8.1-13.26-28.13,2.84-58,32.24-64.53-30.97-.61-31.21-37.01-24.21-60.41Z"/>
</svg>