<?xml version="1.0" encoding="UTF-8"?>
<svg id="uuid-0348b44b-90cb-431d-8c3b-167963667617" data-name="Layer 1" xmlns="http://www.w3.org/2000/svg" viewBox="0 0 1080 1080">
  <defs>
    <style>
      .uuid-3eb18b3a-ba1c-4195-b863-45b0f7bb85f8 {
        fill: #fd5704;
      }
    </style>
  </defs>
  <path class="uuid-3eb18b3a-ba1c-4195-b863-45b0f7bb85f8" d="M701.36,688.88c78.51,12.18,154.94.63,232.73,24.08,16.77,5.06,37.69,8.55,38.61,28.65.93,20.38-7.46,23.49-24.96,29.67-60.56,21.38-146.2,20.49-209.71,19.72-185.65-2.25-373.63.81-558.4-15.86-24.23-2.19-54.52-3.29-76.65-12.71-43.77-18.63-8.64-63.39,26.41-66.2,76-1.63,151.49-17.26,227.29-10.39,4.06-74.51,20.14-152.38,47.78-221.85,15.62-39.28,34.74-77.16,70.46-101.84,103.11-71.22,224.1,22.84,232.79,133.69,4.85,61.89-1.53,131.3-6.34,193.04Z"/>
</svg>