<?xml version="1.0" encoding="UTF-8"?>
<svg id="Layer_1" xmlns="http://www.w3.org/2000/svg" version="1.1" viewBox="0 0 1080 1080">
  <!-- Generator: Adobe Illustrator 30.0.0, SVG Export Plug-In . SVG Version: 2.1.1 Build 123)  -->
  <defs>
    <style>
      .st0 {
        fill: #6dccfe;
      }

      .st1 {
        fill: #152f1f;
      }
    </style>
  </defs>
  <path class="st0" d="M151.23,549.17c-37.81-31.99-12.27-66.45,24.65-79.6,8.31-2.96,13.52-5.07,49.52-8.6h70.16c-3.3-36.65-11.75-73.05-7.97-110.21,2.05-20.13,22.2-72.55,42.88-77.36,68.21-15.85,45.06,77.36,50.32,116.36,2.14,15.85,19.31,72.4,29.2,83.06,8.68,9.36,114.27,39.44,133.33,43.08,132.47,25.27,275.94-2.55,409.75-2.82v226.52c-21.22,3.63-45.16,4.76-66.32,5.85-77.31,3.99-155.31,3.76-232.33,8.22-145.28,8.42-282.69,38.41-432.99,27.98-47.7-3.31-95.13-29.61-92.88-63.24.74-11.15,9.89-20.42,14.66-24.92,3.95,6.03,10.38,8.56,16.92,9.14,48.87,4.27,108.61,12.64,152.68,6.51,57.44-7.99,37.48-40.58-3.98-67.96-.06-5.08,54.64-16.94,42.5-54.24-2.61-8.01-32.14-17.64-31.11-23.49,1.33-7.59,42.47-8.33,39.39-31.98-5.87-45.1-110.72-37.43-144.21-38.42-1.23,7.7,13.53-1.19,20.4.06,23.47,4.29,116.59,3.68,111.92,45.87-.51,4.63-2.21,7.56-5.78,10.47-13.12,10.69-88.41,9.14-108.71,7.91-27.13-1.64-54.85-1.3-81.99-8.21Z"/>
  <path class="st0" d="M147.22,629.36c-12.71-8.89-17.67-16.49-18.75-18.96-9.15-20.95,3.6-46.61,22.76-57.21,23.68,8.92,56.67,14.31,82.23,16,26.26,1.73,128.73-21.17,113.35,41.93-11.66,47.79-149.52,27.25-189.02,19.74-4.08-.78-10.18-1.22-10.57-1.49Z"/>
  <path class="st0" d="M143.21,689.5c-1.6-5.68-11.48-13.43-11.47-26.07,0-9.05,6.92-25.62,15.48-30.05,19.63,6.84,45.08,10.98,65.98,12.2,30.31,1.76,74.01-6.17,99.32-3.45,30.64,3.3,56.62,45.34,17.61,59.37-9.26,3.33-45.47,3.69-56.64,4-44.44,1.24-87-8.8-130.27-15.98Z"/>
  <path class="st1" d="M143.21,693.51c.25-.83.24-3.17,0-4.01,43.27,7.18,85.83,17.22,130.27,15.98,11.17-.31,47.76-3.69,56.46-7.65,30.33-13.81,14.56-43.22-14.15-45.67-25.36-2.17-72.28-4.82-102.59-6.59-20.91-1.22-46.35-5.36-65.98-12.2v-4.01c.45.16,6.57-.58,10.99-.08,39.95,4.51,168.06,25.16,185.71-17.68,21.83-53-84.2-40.69-110.46-42.42-25.56-1.69-58.55-7.07-82.23-16v-4.01c33.48,4.64,54.86,6.57,81.99,8.21,20.3,1.23,95.6,2.78,108.71-7.91,3.57-2.91,5.27-5.84,5.78-10.47,4.67-42.19-100.5-34.73-123.97-39.02-4.99-.91-9.01-1.43-10.37-4.58-.99-2.29.75-4.84,3.25-4.8,37,.61,138.7-2.88,142.97,40.88,3.46,35.46-41.82,31.87-39.39,31.98,19.14.87,34.38,16.69,35.71,25.01,6.69,41.97-24.23,51.44-43.4,53.64,66.95,8.5,53.74,69.6-9.42,72.55-52.78,2.46-60.99,3.21-142.97-12.02-6.45-1.2-12.96-3.1-16.92-9.14Z"/>
  <path class="st1" d="M245.89,759.83c.93-.21,94.88,6.46,95.54-30.42.01-.6-.24-2.98-.5-3.52-1.77-3.59-3.6-13.76-28.19-12.06-2.39.17-12.47,1.54-12.74-.84l2.16-3.94c-.3-2.55,1.6-4.84,4.16-5.01,36.94-2.55,43.15,19.02,43.4,19.98l.09.35.04.36c1.17,11.61-3.63,21.42-13.88,28.36-7.36,4.98-19.23,8.59-19.55,8.66-27.96,5.89-50.25,5.83-72.47,5.83"/>
</svg>