<?xml version="1.0" encoding="UTF-8"?>
<svg id="uuid-c409f6b8-9a91-4d22-bed2-09f3f7cc7c58" data-name="Layer 1" xmlns="http://www.w3.org/2000/svg" viewBox="0 0 1080 1080">
  <defs>
    <style>
      .uuid-59973053-e742-4f5d-bb26-7da35664c6e9 {
        fill: #faf9f8;
      }

      .uuid-d4ef002c-ebb8-41e4-b5e6-dbdd164a04f1 {
        fill: #6dcbfd;
      }

      .uuid-32d27903-b4d0-49de-acde-3c9772788a16 {
        fill: #020201;
      }
    </style>
  </defs>
  <g>
    <path class="uuid-d4ef002c-ebb8-41e4-b5e6-dbdd164a04f1" d="M928.66,472.18c-5.8-66.47-69.68-81.4-126.36-79.86-70.82,1.93-155.48,32.59-228.37,42.77-100.86,14.08-204.22,19.55-304.51-.41-54.48-10.84-113.42-46.11-148.03,20.78-33.65,65.03,10.63,121.58,67.17,151.55,109.8,58.22,392.87,76.09,514.17,54.65,85.94-15.19,235.09-84.65,225.95-189.49ZM289.04,555.37c19.18-16.89,18.71-24.5,35.81-42.07,3.3-3.39,18.29-23.84,24.08-27.29l6.32,85.13c-26.25-4.28-41.76-7.93-66.21-15.77ZM408.85,577.44c11.67-22.28,14.23-32.8,25.94-54.35,2.33-4.29,12.74-24.89,15.26-27.83l18.7,88.48c-20.41-.69-40.48-4.19-59.9-6.31ZM512.89,583.75c.98-14.76,31.35-93.78,39.45-97.73,0,0,8.04,30.49,9.22,34.28,7.38,23.78,9.24,33.7,17.54,57.15-21.26,1.63-43.84,5.66-66.21,6.31ZM639,574.29l22.1-100.9c5.59,4.16,16.21,25.96,18.55,30.38,11.86,22.36,14.31,31.11,25.56,54.75-23.4,6-40.6,12.63-66.21,15.77ZM749.35,545.91l15.8-107.22c3.87,1.66,53.66,75.18,56.72,81.99-25.57,12.41-46.21,16.99-72.51,25.23Z"/>
    <path class="uuid-59973053-e742-4f5d-bb26-7da35664c6e9" d="M765.15,438.69l-15.8,107.22c26.3-8.24,46.94-12.81,72.51-25.23-3.06-6.81-52.84-80.32-56.72-81.99Z"/>
    <path class="uuid-59973053-e742-4f5d-bb26-7da35664c6e9" d="M661.1,473.39l-22.1,100.9c25.61-3.13,42.81-9.77,66.21-15.77-11.25-23.64-13.7-32.39-25.56-54.75-2.34-4.42-12.96-26.22-18.55-30.38Z"/>
    <path class="uuid-59973053-e742-4f5d-bb26-7da35664c6e9" d="M552.34,486.02c-8.1,3.95-38.47,82.97-39.45,97.73,22.37-.64,44.95-4.68,66.21-6.31-8.3-23.45-10.16-33.37-17.54-57.15-1.18-3.79-9.22-34.28-9.22-34.28Z"/>
    <path class="uuid-59973053-e742-4f5d-bb26-7da35664c6e9" d="M324.85,513.3c-17.1,17.57-16.62,25.18-35.81,42.07,24.45,7.84,39.96,11.49,66.21,15.77l-6.32-85.13c-5.79,3.45-20.78,23.9-24.08,27.29Z"/>
    <path class="uuid-59973053-e742-4f5d-bb26-7da35664c6e9" d="M434.79,523.1c-11.71,21.55-14.26,32.07-25.94,54.35,19.42,2.12,39.49,5.62,59.9,6.31l-18.7-88.48c-2.53,2.94-12.93,23.54-15.26,27.83Z"/>
  </g>
  <path class="uuid-32d27903-b4d0-49de-acde-3c9772788a16" d="M550.7,589.92c-108.8-1.1-190.35-14.59-239.63-25.72-23.22-5.24-65.97-16.7-80.88-24.17-.45-.06-.9-.17-1.35-.34l.12-.31h-.02s-.11.3-.11.3l.11-.31c-2.17-1.18-3.55-2.25-3.93-3.16l-1.57-3.74,5.61-5.85,4.11,1.51c.39.15.77.33,1.12.55,9.35,3.96,116.33,46.87,316.36,48.89,1.73-.04,192.69-4.61,307.42-78.99,2.87-1.85,6.68-1.04,8.52,1.82,1.85,2.85,1.04,6.67-1.81,8.52-117.72,76.31-306.11,80.81-314.08,80.97Z"/>
</svg>