<?xml version="1.0" encoding="UTF-8"?>
<svg id="Layer_1" xmlns="http://www.w3.org/2000/svg" version="1.1" viewBox="0 0 1080 1080">
  <!-- Generator: Adobe Illustrator 30.0.0, SVG Export Plug-In . SVG Version: 2.1.1 Build 123)  -->
  <defs>
    <style>
      .st0 {
        fill: #152f1f;
      }

      .st1 {
        fill: #6dccff;
      }
    </style>
  </defs>
  <path class="st1" d="M620.9,388.65l59.36-106.55c8.65-12.79,22.42-43.26,35.68-47.84,17.5-6.05,29.04-1.73,32.86,16.61,9.29,44.64-51.09,119.5-63.11,162.54,27.69-27.02,44.43-62.74,67.68-93.27,8.67-11.39,26.11-41.62,39.45-41.72,53.79-.41-5.35,90.36-16.68,108.91-14.33,23.46-30.11,45.05-40.08,70.87l42.88-40.48c16.92-15.71,39.07-47.44,56.1-36.18,14.71,9.73-3.41,51.7-11.03,65.26-41.93,74.65-125.28,166.44-184.52,229.84-70.35,75.29-194.26,165.72-295.38,188.97-42.56,9.79-88.44,14.88-131.63,18.18l-2.42-159.23c56.37-14.75,116.71-33.63,166.69-64.29,25.31-15.52,46.13-46.5,64.72-69.67-.29-42.68,6.41-85.53,3.51-128.3-1.86-27.56-22.96-102.93-8.57-123.13,7.79-10.94,23.97-12.4,35.74-7.62,20.81,8.45,32.64,77.48,47.63,100.66,1.39,2.14,1.73,3.54,3.95,3.95,1.25.23,2.49-.5,2.92-1.7l72.54-201.28c7.79-25,47.49-46.98,58.66-14.55,8.4,24.38-25.54,110.94-36.97,170.03Z"/>
  <path class="st0" d="M542.29,462.31c1.11.96,19.66,26.8,21.38,30.45,9.48,20.11,19.2,45.37,19.42,69.65.08,8.13-5.34,3.82-6.17.52-8.9-35.6-14.65-65.4-40.59-95.46-1.07-1.24-1.68-2.87-1.11-4.39,1.08-2.91,4.78-2.74,7.07-.76Z"/>
</svg>